<?xml version="1.0" encoding="utf-8"?><svg viewBox="0 0 474 474" xmlns="http://www.w3.org/2000/svg" xmlns:xlink="http://www.w3.org/1999/xlink"><style>:root>svg{display:none}:root>svg:target{display:block}</style><svg fill="none" viewBox="0 0 44 48" id="Group" xmlns="http://www.w3.org/2000/svg"><path d="M21.463 47.931c-.89-.205-1.712-.479-2.26-1.232-.342-.48-.616-1.096-.89-1.643-.137-.274-.205-.411-.48-.48a20.344 20.344 0 01-5.203-1.78 20.34 20.34 0 01-6.71-5.34c-.206-.275-.411-.275-.685-.206-1.712.616-3.561-.137-4.451-1.712-.89-1.644-.548-3.63.958-4.725.274-.205.343-.41.206-.753-1.233-4.04-1.233-8.148 0-12.188.068-.274.068-.48-.206-.685C.236 16.09-.175 14.106.715 12.462c.89-1.643 2.74-2.328 4.52-1.712.342.137.479 0 .684-.205a20.34 20.34 0 016.71-5.341c1.576-.822 3.287-1.37 5-1.712.41-.068.684-.205.821-.753C18.724 1.096 20.299 0 22.01 0c1.712 0 3.219 1.233 3.561 2.876.069.41.274.548.617.616a19.63 19.63 0 017.669 3.287c1.575 1.095 2.944 2.328 4.108 3.766.205.274.41.342.753.205 1.644-.616 3.56.137 4.451 1.644.89 1.643.548 3.629-.89 4.724-.274.206-.343.411-.274.754 1.232 4.04 1.232 8.148 0 12.188-.069.274-.069.48.205.685 1.37 1.027 1.85 2.944 1.164 4.519-.753 1.643-2.533 2.602-4.177 2.123-.753-.206-1.095 0-1.574.547-3.013 3.424-6.848 5.615-11.298 6.574-.411.068-.685.274-.754.753-.41 1.438-1.37 2.26-2.739 2.67-.137 0-.205.069-.342.069-.41-.069-.685-.069-1.027-.069zm.48-34.442c-5.753 0-10.477 4.725-10.477 10.477 0 5.752 4.724 10.476 10.476 10.476 5.752 0 10.477-4.724 10.477-10.476 0-5.752-4.725-10.477-10.477-10.477zm-3.561-8.627c-4.725.89-8.56 3.218-11.572 6.915.821 1.028 1.095 2.123.821 3.356 0 .137.137.274.206.342l2.67 1.438c.41.205.822.48 1.233.685 2.465-3.63 5.82-5.615 10.202-5.615 4.383 0 7.67 2.054 10.134 5.615 1.164-.616 2.26-1.233 3.355-1.85.548-.273.89-.547.754-1.3-.206-1.027.205-1.917.89-2.739-3.013-3.698-6.848-6.026-11.572-6.916-.48 1.438-1.438 2.26-2.876 2.602v3.013H21.12V7.395c-1.301-.342-2.26-1.164-2.74-2.533zM6.81 36.154c3.08 3.698 6.847 6.026 11.572 6.916.479-1.37 1.438-2.26 2.875-2.602v-3.013h1.507v3.013c1.438.342 2.328 1.232 2.807 2.602 4.725-.959 8.56-3.218 11.572-6.916-.89-1.37-.958-1.78-.821-3.355a.523.523 0 00-.137-.343c-1.301-.753-2.67-1.438-4.04-2.19-2.465 3.628-5.82 5.614-10.203 5.614-4.382 0-7.737-2.054-10.202-5.615-1.37.753-2.67 1.438-3.972 2.191-.068.069-.205.206-.137.343.274 1.3-.068 2.396-.821 3.355zm4.245-7.19c-1.438-3.355-1.438-6.71 0-10.065-1.438-.754-2.808-1.575-4.245-2.328-.96 1.027-2.055 1.438-3.424 1.3-1.233 4.04-1.233 8.012 0 12.052 1.37-.137 2.465.342 3.424 1.301 1.437-.685 2.807-1.438 4.245-2.26zm26.02 2.328c.89-.89 1.917-1.438 3.218-1.369.069 0 .274-.205.343-.274.684-2.191.958-4.382.821-6.71-.068-1.712-.342-3.355-.959-4.999-1.3.137-2.396-.274-3.286-1.164-.069-.068-.274-.068-.411 0-.616.342-1.233.685-1.78.959-.685.41-1.438.753-2.123 1.164 1.438 3.355 1.438 6.71 0 10.065a81.771 81.771 0 004.177 2.328zM21.942 5.957c1.233 0 2.26-1.027 2.26-2.191 0-1.232-.959-2.26-2.191-2.26a2.28 2.28 0 00-2.26 2.26c-.068 1.164.959 2.191 2.191 2.191zM6.193 14.242a2.28 2.28 0 00-2.26-2.26 2.28 2.28 0 00-2.259 2.26c0 1.233 1.027 2.192 2.26 2.192 1.3 0 2.26-1.027 2.26-2.192zm35.949 0c0-1.232-1.027-2.26-2.191-2.26-1.233 0-2.26.96-2.26 2.192a2.28 2.28 0 002.26 2.26c1.164.068 2.19-.959 2.19-2.192zM6.193 33.69a2.28 2.28 0 00-2.26-2.26 2.28 2.28 0 00-2.259 2.26 2.28 2.28 0 002.26 2.26c1.3 0 2.26-1.027 2.26-2.26zm35.949 0c0-1.233-1.027-2.26-2.191-2.26-1.233 0-2.26.959-2.26 2.192a2.28 2.28 0 002.26 2.26c1.164.068 2.19-.96 2.19-2.192zm-20.2 8.285c-1.232 0-2.26 1.027-2.26 2.192a2.28 2.28 0 002.26 2.26 2.28 2.28 0 002.26-2.26c0-1.233-1.027-2.192-2.26-2.192z" fill="#fff"/><path d="M19.545 23.075c-1.438-1.301-1.643-2.876-1.233-4.588.411-1.78 2.192-2.944 3.903-2.807 1.986.205 3.287 1.712 3.424 3.697.069 1.37-.205 2.602-1.37 3.63.206.136.412.342.617.479 1.096.684 2.26 1.37 3.355 1.985.274.137.411.343.343.685v1.986c.068.89-.411 1.506-1.165 1.78-.753.274-1.574.48-2.328.548-2.465.205-4.998.274-7.463-.137-.411-.068-.822-.205-1.233-.342-.821-.343-1.3-.959-1.232-1.85v-2.053c0-.274.068-.411.274-.548 1.164-.685 2.26-1.37 3.423-2.054.274-.069.48-.206.685-.411zm1.986 6.162c1.37-.068 2.328-.068 3.287-.137a18.763 18.763 0 001.917-.342c.342-.068.41-.274.41-.616.206-1.096-.205-1.849-1.3-2.26-.137-.068-.274-.137-.343-.205-.821-.548-1.643-1.164-2.465-1.712-.068-.069-.274-.069-.41-.069h-1.575c-.137 0-.343 0-.411.069-.89.959-2.055 1.506-3.15 2.123-.685.41-1.027.821-.89 1.643.068.959.068.959.958 1.232h.137c1.507.069 2.876.206 3.835.274zm-1.849-9.449v.616c.069 1.164 1.027 1.986 2.123 2.055 1.095.068 2.122-.685 2.26-1.78.068-.617.068-1.233-.07-1.781-.341-1.37-1.985-2.054-3.217-1.37-.754.48-1.096 1.301-1.096 2.26zM22.696 4.45h-1.438V3.012h1.438V4.45zM4.686 14.927H3.248v-1.438h1.438v1.438zM40.635 13.489v1.438h-1.438v-1.438h1.438zM4.686 34.442H3.248v-1.438h1.438v1.438zM40.635 33.004v1.438h-1.438v-1.438h1.438zM22.696 43.48v1.439h-1.438V43.48h1.438z" fill="#fff"/></svg><svg fill="none" viewBox="0 0 455 448" id="Illustration" xmlns="http://www.w3.org/2000/svg"><path opacity=".5" d="M410.147 85.314c-6.926-9.501-66.22-88.081-162.332-84.253-4.803.19-98.539 5.152-133.112 66.75-25.575 45.565 1.502 85.991-29.698 117.035-27.194 27.051-60.597 9.146-77.303 31.02-25.449 33.32 15.071 123.31 77.345 173.498 64.294 51.82 187.298 89.838 282.908 20.7 107.327-77.624 106.244-236.888 42.192-324.75z" fill="url(#bpaint0_linear_1457_20396)" fill-opacity=".5"/><path d="M110.941 284.066a206.255 206.255 0 01-26.702-1.76l.103-.787c57.388 7.489 94.255-11.304 98.289-13.482-20.17-31.432-5.913-77.678-5.766-78.14l.757.239c-.146.462-14.398 46.709 5.907 77.827l.228.35-.362.21c-.326.182-27.41 15.543-72.454 15.543z" fill="#fff"/><path d="M146.387 243.902a2.247 2.247 0 01-2.231-2.032c-1.966-20.627-8.692-40.228-18.939-55.187-9.077-13.254-19.882-21.163-28.911-21.163h-.028c-32.886.064-39.766 75.566-39.832 76.337a2.246 2.246 0 01-4.473-.383c.281-3.276 7.322-80.364 44.295-80.433h.04c10.669 0 22.553 8.422 32.617 23.116 10.667 15.577 17.665 35.926 19.702 57.297a2.245 2.245 0 01-2.022 2.458 2.286 2.286 0 00-.218-.01z" fill="url(#bpaint1_linear_1457_20396)"/><path d="M9.384 399.293l43.291 21.917 26.238-80.49-43.227-107.915-12.255 3.004L4.835 390.778a8.406 8.406 0 004.549 8.515z" fill="url(#bpaint2_linear_1457_20396)"/><path style="mix-blend-mode:multiply" opacity=".52" d="M78.914 340.72L35.687 232.805l-7.228 1.779a234.97 234.97 0 00.12 34.893c2.896 36.738 12.518 46.962 7.863 72.592-3.876 21.311-12.34 24.204-11.602 38.543.806 15.615 11.698 28.692 24.648 38.974l3.194 1.617 26.232-80.483z" fill="url(#bpaint3_linear_1457_20396)"/><path d="M35.687 232.811H197.1l53.42 172.458L52.676 421.21l-16.99-188.399z" fill="url(#bpaint4_linear_1457_20396)"/><path d="M85.69 247.592a2.246 2.246 0 01-2.19-1.733c-.458-1.956-11.063-48.161 3.89-70.845 4.285-6.498 10.274-10.467 17.797-11.794 38.66-6.812 62.454 76.211 63.448 79.75.089.286.119.587.089.886a2.25 2.25 0 01-2.515 2.005 2.244 2.244 0 01-1.897-1.678c-.232-.819-23.66-82.665-58.346-76.542-6.347 1.121-11.198 4.341-14.827 9.845-13.9 21.082-3.374 66.888-3.266 67.348a2.246 2.246 0 01-2.184 2.758z" fill="url(#bpaint5_linear_1457_20396)"/><path style="mix-blend-mode:multiply" opacity=".3" d="M197.1 232.805h-80.076c-3.95 4.017-6.753 8.646-7.021 13.841-1.258 24.408 54.835 32.415 60.246 65.853 3.902 24.125-20.11 51.961-41.535 64.361-22.574 13.066-37.87 6.45-53.137 20.956-6.707 6.374-10.792 14.343-13.221 22.606l188.164-15.161-53.42-172.456z" fill="url(#bpaint6_linear_1457_20396)"/><path d="M91.903 248.952a6.274 6.274 0 10-12.386-2.011 6.274 6.274 0 0012.386 2.011z" fill="url(#bpaint7_linear_1457_20396)"/><path d="M174.649 247.578a6.292 6.292 0 10-12.422-2.008 6.292 6.292 0 0012.422 2.008z" fill="url(#bpaint8_linear_1457_20396)"/><path d="M315.61 53.92a143646.362 143646.362 0 0042.061 351.785c.63 5.203-2.964 9.802-7.993 10.232a42077.11 42077.11 0 00-169.047 16.381c-10.052.492-15.572-5.129-16.218-10.751a164499.16 164499.16 0 01-43.294-379.69c-.655-5.743 4.218-10.679 14.27-10.188 56.627 4.041 113.253 8.028 169.876 11.959 5.065.334 9.715 4.952 10.345 10.271z" fill="#26264F"/><path d="M323.435 53.673a142542.96 142542.96 0 0042.327 353.293c.634 5.219-2.981 9.847-8.043 10.278a53237.33 53237.33 0 00-175.534 15.161c-5.339.475-10.247-3.755-10.897-9.405a163183.147 163183.147 0 01-43.575-381.457c-.655-5.768 3.219-10.194 8.595-9.829 58.905 3.932 117.809 7.814 176.714 11.647 5.101.338 9.781 4.972 10.413 10.313z" fill="url(#bpaint9_linear_1457_20396)"/><path d="M320.037 73.143a140842.432 140842.432 0 0039.204 327.58c.591 4.887-2.785 9.202-7.516 9.587a52450.005 52450.005 0 00-165.081 13.76c-4.972.426-9.542-3.533-10.156-8.782A155192.277 155192.277 0 01136.206 63.23c-.608-5.361 2.994-9.509 7.997-9.212 55.369 3.223 110.739 6.413 166.108 9.57 4.764.268 9.136 4.583 9.726 9.555z" fill="url(#bpaint10_linear_1457_20396)"/><path d="M320.037 73.143a140842.432 140842.432 0 0039.204 327.58c.591 4.887-2.785 9.202-7.516 9.587a52450.005 52450.005 0 00-165.081 13.76c-4.972.426-9.542-3.533-10.156-8.782A155192.277 155192.277 0 01136.206 63.23c-.608-5.361 2.994-9.509 7.997-9.212 55.369 3.223 110.739 6.413 166.108 9.57 4.764.268 9.136 4.583 9.726 9.555z" fill="url(#bpaint11_linear_1457_20396)"/><path d="M310.317 63.584a135723.62 135723.62 0 01-164.142-9.457 125.532 125.532 0 009.612 31.097c18.15 39.375 44.812 41.542 55.242 75.846 10.746 35.35-13.488 46.412-1.65 78.328 12.848 34.633 44.36 29.62 61.013 67.608 14.355 32.744-4.125 47.711 10.719 67.61 16.27 21.809 46.367 14.416 77.609 21.802a143191.776 143191.776 0 01-38.684-323.274c-.589-4.973-4.962-9.288-9.719-9.56z" fill="url(#bpaint12_linear_1457_20396)" opacity=".35"/><path d="M230.402 49.049c.223 1.918-1.067 3.386-2.878 3.276-1.812-.11-3.467-1.757-3.689-3.684-.223-1.926 1.068-3.397 2.881-3.276 1.813.121 3.463 1.764 3.686 3.684z" fill="#DE8BDF"/><path d="M250.167 155.609c6.995 0 12.665-6.689 12.665-14.94s-5.67-14.94-12.665-14.94c-6.994 0-12.664 6.689-12.664 14.94s5.67 14.94 12.664 14.94z" fill="#DD51D4"/><path d="M250.167 155.609c6.995 0 12.665-6.689 12.665-14.94s-5.67-14.94-12.665-14.94c-6.994 0-12.664 6.689-12.664 14.94s5.67 14.94 12.664 14.94z" fill="#000" fill-opacity=".2"/><path d="M300.578 155.609c6.993 0 12.663-6.689 12.663-14.94s-5.67-14.94-12.663-14.94c-6.994 0-12.663 6.689-12.663 14.94s5.669 14.94 12.663 14.94z" fill="#DD51D4"/><path d="M300.578 155.609c6.993 0 12.663-6.689 12.663-14.94s-5.67-14.94-12.663-14.94c-6.994 0-12.663 6.689-12.663 14.94s5.669 14.94 12.663 14.94z" fill="#000" fill-opacity=".2"/><path d="M275.232 155.609c7.094 0 12.845-6.689 12.845-14.94s-5.751-14.94-12.845-14.94-12.844 6.689-12.844 14.94 5.75 14.94 12.844 14.94z" fill="#D8DEE8"/><path d="M350.988 155.609c6.994 0 12.664-6.689 12.664-14.94s-5.67-14.94-12.664-14.94c-6.995 0-12.665 6.689-12.665 14.94s5.67 14.94 12.665 14.94z" fill="#DD51D4"/><path d="M350.988 155.609c6.994 0 12.664-6.689 12.664-14.94s-5.67-14.94-12.664-14.94c-6.995 0-12.665 6.689-12.665 14.94s5.67 14.94 12.665 14.94z" fill="#000" fill-opacity=".2"/><path d="M325.644 155.609c7.093 0 12.844-6.689 12.844-14.94s-5.751-14.94-12.844-14.94c-7.094 0-12.845 6.689-12.845 14.94s5.751 14.94 12.845 14.94zM376.053 155.609c7.094 0 12.844-6.689 12.844-14.94s-5.75-14.94-12.844-14.94c-7.094 0-12.845 6.689-12.845 14.94s5.751 14.94 12.845 14.94zM224.823 155.609c7.094 0 12.845-6.689 12.845-14.94s-5.751-14.94-12.845-14.94-12.844 6.689-12.844 14.94 5.75 14.94 12.844 14.94z" fill="#D8DEE8"/><path d="M133.67 52.535l78.583 90.157h202.826l-98.282-78.74L133.67 52.536z" fill="url(#bpaint13_linear_1457_20396)"/><path d="M133.67 52.535l78.583 90.157h202.826l-98.282-78.74L133.67 52.536z" fill="#DD51D4"/><path d="M133.67 52.535l78.583 90.157h25.415l-82.859-88.84-21.139-1.317zM177.506 55.267l85.206 87.425h25.103l-87.444-85.998-22.865-1.427zM223.407 58.13l89.572 84.562h25.226l-91.59-83.115-23.208-1.448zM293.567 62.505l-23.566-1.47 93.489 81.657h25.349l-95.272-80.187z" fill="#F4F7FA"/><path d="M388.863 142.692c.839 7.293 6.124 12.919 12.534 12.919 6.41 0 11.696-5.626 12.535-12.919h-25.069z" fill="#DD51D4"/><path d="M388.863 142.692c.839 7.293 6.124 12.919 12.534 12.919 6.41 0 11.696-5.626 12.535-12.919h-25.069z" fill="#000" fill-opacity=".2"/><path opacity=".63" d="M292.463 199.013c-10.976-25.28-38.798-37.558-62.156-27.422-23.359 10.135-33.402 38.845-22.433 64.127 10.969 25.281 38.798 37.556 62.156 27.42 23.359-10.135 33.402-38.851 22.433-64.125zm-34.444 36.026l.936 7.12-6.843.899-.865-6.633c-4.705.406-9.408-.254-12.263-1.441l1.021-8.443c3.143 1.218 7.455 2.146 11.994 1.548 3.979-.523 6.5-2.417 6.132-5.21-.348-2.653-2.803-4.034-8.191-5.101-7.801-1.531-13.356-4.352-14.252-11.124-.806-6.144 2.89-11.53 10.166-13.977l-.871-6.633 6.842-.898.806 6.143c4.707-.406 7.977.164 10.427.973l-.983 8.155c-1.916-.529-5.338-1.713-10.366-1.052-4.538.595-5.746 2.744-5.489 4.699.303 2.303 2.939 3.44 9.173 4.903 8.694 1.841 12.549 5.242 13.374 11.521.798 6.215-2.903 12.097-10.748 14.551z" fill="#F4F7FA"/><g opacity=".63" fill="#F4F7FA"><path opacity=".63" d="M317.525 336.282l-106.917 3.238a7.605 7.605 0 01-5.099-1.758 7.606 7.606 0 01-2.648-4.699l-4.334-28.504a7.598 7.598 0 017.342-8.744l107.032-2.479a7.607 7.607 0 017.699 6.459l4.218 27.744a7.59 7.59 0 01-1.679 6.013 7.61 7.61 0 01-5.614 2.73zM321.117 359.714l-106.855 3.651a7.6 7.6 0 01-7.776-6.455l-.041-.269a7.602 7.602 0 017.276-8.743l106.894-3.386a7.601 7.601 0 017.759 6.456 7.617 7.617 0 01-1.666 6.002 7.6 7.6 0 01-5.591 2.744z"/></g><defs><linearGradient id="bpaint0_linear_1457_20396" x1="454.252" y1="43.546" x2="-99.704" y2="99.751" gradientUnits="userSpaceOnUse"><stop stop-color="#7C4EAB"/><stop offset="1" stop-color="#DD51D4"/></linearGradient><linearGradient id="bpaint1_linear_1457_20396" x1="102972" y1="135379" x2="105430" y2="172641" gradientUnits="userSpaceOnUse"><stop stop-color="#E38DDD"/><stop offset="1" stop-color="#9571F6"/></linearGradient><linearGradient id="bpaint2_linear_1457_20396" x1="-13.588" y1="256.748" x2="41.134" y2="348.515" gradientUnits="userSpaceOnUse"><stop stop-color="#FF9085"/><stop offset="1" stop-color="#FB6FBB"/></linearGradient><linearGradient id="bpaint3_linear_1457_20396" x1="24160.8" y1="380112" x2="80098.9" y2="407058" gradientUnits="userSpaceOnUse"><stop stop-color="#FF9085"/><stop offset="1" stop-color="#FB6FBB"/></linearGradient><linearGradient id="bpaint4_linear_1457_20396" x1="120263" y1="354128" x2="301982" y2="513787" gradientUnits="userSpaceOnUse"><stop stop-color="#FF9085"/><stop offset="1" stop-color="#FB6FBB"/></linearGradient><linearGradient id="bpaint5_linear_1457_20396" x1="103738" y1="121243" x2="111476" y2="173213" gradientUnits="userSpaceOnUse"><stop stop-color="#E38DDD"/><stop offset="1" stop-color="#9571F6"/></linearGradient><linearGradient id="bpaint6_linear_1457_20396" x1="185970" y1="423694" x2="362553" y2="560146" gradientUnits="userSpaceOnUse"><stop stop-color="#FF9085"/><stop offset="1" stop-color="#FB6FBB"/></linearGradient><linearGradient id="bpaint7_linear_1457_20396" x1="11984.9" y1="25013.6" x2="12178.7" y2="25085.6" gradientUnits="userSpaceOnUse"><stop stop-color="#E38DDD"/><stop offset="1" stop-color="#9571F6"/></linearGradient><linearGradient id="bpaint8_linear_1457_20396" x1="18404.5" y1="25025.5" x2="18598.9" y2="25097.6" gradientUnits="userSpaceOnUse"><stop stop-color="#E38DDD"/><stop offset="1" stop-color="#9571F6"/></linearGradient><linearGradient id="bpaint9_linear_1457_20396" x1="156.345" y1="231.316" x2="505.686" y2="176.039" gradientUnits="userSpaceOnUse"><stop stop-color="#444B8C"/><stop offset="1" stop-color="#26264F"/></linearGradient><linearGradient id="bpaint10_linear_1457_20396" x1="313.394" y1="95.702" x2="-30.638" y2="809.289" gradientUnits="userSpaceOnUse"><stop stop-color="#FFC444"/><stop offset="1" stop-color="#F36F56"/></linearGradient><linearGradient id="bpaint11_linear_1457_20396" x1="359.308" y1="89.317" x2="85.353" y2="105.797" gradientUnits="userSpaceOnUse"><stop stop-color="#7C4EAB"/><stop offset="1" stop-color="#DD51D4"/></linearGradient><linearGradient id="bpaint12_linear_1457_20396" x1="358.719" y1="86.788" x2="97.864" y2="102.948" gradientUnits="userSpaceOnUse"><stop stop-color="#7C4EAB"/><stop offset="1" stop-color="#DD51D4"/></linearGradient><linearGradient id="bpaint13_linear_1457_20396" x1="246938" y1="61480.2" x2="730357" y2="61480.2" gradientUnits="userSpaceOnUse"><stop stop-color="#FF9085"/><stop offset="1" stop-color="#FB6FBB"/></linearGradient></defs></svg><svg fill="none" viewBox="0 0 474 474" id="IllustrationSchedule" xmlns="http://www.w3.org/2000/svg"><path opacity=".5" d="M360.766 28.49c15.823 22.885-2.729 59.986 20.744 77.198 22.852 16.753 50.923-10.712 72.458 3.713 31.946 21.394 26.113 119.288-20.595 180.111-14.046 18.288-25.783 25.409-30.982 46.096-11.16 44.419 28.067 70.843 20.602 92.812-16.801 49.468-275.312 90.976-379.036-57.689-48.446-69.433-55.692-169.695-12.41-245.843 78.211-137.6 293.721-147.747 329.219-96.399z" fill="url(#cpaint0_linear_1457_20327)" fill-opacity=".5"/><path d="M0 416.014l462.743-3.443v10.187a5.602 5.602 0 01-4.748 5.535l-130.851 20.059a21.02 21.02 0 01-4.702.189L5.024 425.672a5.415 5.415 0 01-5.029-5.403L0 416.014z" fill="url(#cpaint1_linear_1457_20327)"/><path d="M167.927 399.502l290.028 18.635c5.19.327 9.41-3.209 9.41-7.916V221.72c0-4.705-4.22-8.519-9.41-8.519H167.927a7.716 7.716 0 00-7.734 7.7v170.398c0 4.258 3.458 7.929 7.734 8.203z" fill="url(#cpaint2_linear_1457_20327)"/><path d="M163.303 399.502l290.028 18.635c5.19.327 9.41-3.209 9.41-7.916V221.72c0-4.705-4.22-8.519-9.41-8.519H163.303a7.716 7.716 0 00-7.734 7.7v170.398c0 4.258 3.458 7.929 7.734 8.203z" fill="url(#cpaint3_linear_1457_20327)"/><path d="M172.338 387.489l270.127 16.186c4.223.253 7.655-2.655 7.655-6.495V232.139c0-3.84-3.425-6.967-7.655-6.983l-270.127-1.016a6.326 6.326 0 00-6.38 6.31v150.317c0 3.503 2.853 6.51 6.38 6.722z" fill="url(#cpaint4_linear_1457_20327)"/><path d="M298.074 218.355c0 1.752 1.493 3.177 3.336 3.182 1.843.005 3.344-1.414 3.344-3.17 0-1.757-1.498-3.179-3.344-3.18-1.847-.002-3.336 1.417-3.336 3.168z" fill="#fff"/><path d="M233.181 347.803c22.359-10.938 39.94 2.921 56.906-10.752 10.286-8.29 5.236-14.472 17.892-26.86 14.019-13.722 23.146-9.11 37.234-21.458 17.815-15.616 8.905-27.764 24.25-38.977 18.615-13.6 38.689-1.011 56.41-14.055 7.642-5.626 11.836-13.805 14.028-22.505h17.335c3.039 0 5.507 2.239 5.507 5v195.405c0 2.761-2.468 4.84-5.507 4.644l-295.587-19.081a4.842 4.842 0 01-3.562-1.979c21.637-.716 34.93-7.311 43.429-14.13 16.622-13.33 13.739-26.483 31.665-35.252z" fill="#fff" opacity=".48"/><path d="M151.743 398.657l311 19.614-135.602 20.788a21.11 21.11 0 01-4.699.186L-.005 416.013l146.795-17.224a27.691 27.691 0 014.953-.132z" fill="url(#cpaint5_linear_1457_20327)"/><path style="mix-blend-mode:multiply" opacity=".3" d="M417.362 418.765l-258.916-16.572-80.133 9.325L335 429.234l82.362-10.469z" fill="url(#cpaint6_linear_1457_20327)"/><path d="M31.033 142.414c-8.482.715-15.995-6.155-16.769-15.343-.773-9.188 5.478-17.215 13.965-17.929.44-.038.876-.042 1.305-.039a96.207 96.207 0 012.21-13.911 14.555 14.555 0 01-1.202-.54c-7.737-3.976-11.112-13.937-7.54-22.251 3.573-8.314 12.744-11.833 20.48-7.858.405.208.79.44 1.17.68A88.495 88.495 0 0153.02 54.48c-.28-.366-.558-.74-.815-1.142-4.915-7.6-3.253-17.986 3.709-23.198 6.962-5.213 16.593-3.279 21.506 4.32.25.39.474.79.691 1.193a78.25 78.25 0 0112.285-4.695c-.075-.463-.145-.93-.184-1.406-.775-9.186-2.447-19.56 6.048-20.142 19.663-1.339 23.912 8.374 24.693 17.56.039.477.049.948.053 1.416a78.38 78.38 0 0112.896 2.577c.147-.434.3-.866.489-1.293 3.574-8.318 2.928-13.862 11.05-10.744 17.712 6.792 20.542 16.825 16.964 25.14-.186.435-.398.847-.613 1.255a88.435 88.435 0 0110.048 9.193c.335-.299.676-.594 1.039-.866 6.962-5.219 16.591-3.278 21.506 4.322 4.915 7.6 3.253 17.986-3.711 23.198-.357.268-.724.504-1.094.732a96.397 96.397 0 014.507 13.347c.427-.075.856-.143 1.305-.18 8.482-.715 15.985 6.154 16.768 15.342.783 9.188-5.479 17.215-13.966 17.929-.439.038-.874.043-1.305.04a96.34 96.34 0 01-2.21 13.911c.403.163.804.336 1.2.539 7.739 3.976 11.114 13.938 7.54 22.253-3.574 8.316-12.742 11.832-20.478 7.856-.405-.207-.791-.44-1.172-.68a87.93 87.93 0 01-8.368 10.744c.283.367.558.739.816 1.141 4.913 7.6 3.253 17.987-3.711 23.201-6.964 5.213-22.036 2.827-26.949-4.772-.253-.39 4.969-.341 4.752-.744a78.194 78.194 0 01-12.283 4.695c.075.463.143.93.184 1.406.773 9.187-5.479 17.215-13.966 17.929-8.488.715-15.996-6.154-16.769-15.341a17.75 17.75 0 01-.054-1.415 78.55 78.55 0 01-12.896-2.577 14.58 14.58 0 01-.49 1.293c-3.572 8.317-12.741 11.832-20.478 7.856-7.737-3.976-11.113-13.937-7.54-22.251.187-.434.397-.848.614-1.256a88.329 88.329 0 01-10.048-9.193c-.326.298-.675.594-1.04.866-6.963 5.219-16.592 3.278-21.505-4.322-4.913-7.599-3.253-17.986 3.711-23.198.356-.268.724-.503 1.093-.733a96.146 96.146 0 01-4.505-13.346c-.434.068-.865.137-1.304.174zm87.27 36.728c30.815-2.594 53.518-31.741 50.707-65.099-2.81-33.36-30.079-58.3-60.891-55.705-30.812 2.595-53.522 31.746-50.708 65.101 2.814 33.356 30.07 58.298 60.885 55.703h.007z" fill="#BFC6D1"/><path d="M30.547 94.65c-7.737-3.976-11.112-13.937-7.54-22.252 3.573-8.316 12.743-11.832 20.48-7.856.405.207.79.44 1.17.68a88.377 88.377 0 018.368-10.744 16.3 16.3 0 01-.816-1.142c-4.915-7.6-8.69-22.668-1.228-27.145 14.16-8.48 21.532.669 26.443 8.267.252.39.475.79.694 1.194A78.161 78.161 0 0190.4 30.956c-.075-.463-.146-.93-.185-1.405-.422-5 1.25-9.647 4.219-12.967a2591.397 2591.397 0 015.314 43.142c-26.447 6.656-44.89 33.445-42.34 63.705 2.16 25.64 18.77 46.29 40.332 53.302-.049 2.804-.122 5.614-.096 8.42.07 7.616.564 15.247 1.067 22.873a77.77 77.77 0 01-6.199-1.517 14.58 14.58 0 01-.49 1.293c-3.572 8.318-11.556 13.373-25.792 6.687-7.874-3.696-5.799-12.771-2.225-21.085.186-.434.397-.848.613-1.256a88.345 88.345 0 01-10.048-9.193c-.326.298-.675.594-1.039.866-6.963 5.219-22.584 2.283-27.499-5.313-4.915-7.597 2.74-16.995 9.704-22.207a14.9 14.9 0 011.093-.734 96.178 96.178 0 01-4.505-13.345c-.428.075-.858.143-1.297.181-8.482.714-15.996-6.155-16.769-15.343-.773-9.188 5.478-17.215 13.967-17.93.438-.037.874-.042 1.305-.039a96.235 96.235 0 012.21-13.91 12.273 12.273 0 01-1.194-.53z" fill="#BFC6D1"/><path d="M23.115 140.201c-8.482.714-15.994-6.153-16.769-15.341-.775-9.188 5.48-17.217 13.967-17.939a13.95 13.95 0 011.305-.038 96.22 96.22 0 012.21-13.912 14.522 14.522 0 01-1.202-.54c-7.737-3.974-11.112-13.937-7.538-22.251 3.574-8.314 12.741-11.832 20.478-7.858.405.21.79.442 1.17.68a88.482 88.482 0 018.37-10.744c-.283-.365-.56-.737-.816-1.141-4.913-7.6-3.253-17.987 3.71-23.199 6.964-5.212 16.592-3.278 21.505 4.322.253.39.475.79.693 1.192a78.151 78.151 0 0112.283-4.695 18.786 18.786 0 01-.184-1.404c-.775-9.188 5.479-17.217 13.966-17.931 8.487-.715 15.994 6.155 16.769 15.343.039.476.05.946.054 1.415a78.342 78.342 0 0112.894 2.575c.149-.433.301-.866.49-1.291 3.574-8.317 12.743-11.832 20.48-7.858 7.736 3.975 11.113 13.937 7.539 22.251-.186.436-.396.848-.613 1.256a88.375 88.375 0 0110.048 9.195c.334-.3.675-.595 1.039-.868 6.964-5.218 16.591-3.278 21.506 4.322 4.915 7.6 3.252 17.986-3.711 23.199-.356.267-.725.504-1.095.733a95.953 95.953 0 014.507 13.345c.428-.075.857-.143 1.305-.179 8.482-.716 15.996 6.153 16.769 15.341.773 9.188-5.479 17.215-13.966 17.94-.439.035-.875.04-1.305.037a96.231 96.231 0 01-2.211 13.913c.403.163.806.336 1.203.538 7.736 3.976 11.111 13.939 7.539 22.253-3.572 8.314-12.743 11.831-20.48 7.857a15.715 15.715 0 01-1.169-.682 88.143 88.143 0 01-8.37 10.744c.282.367.559.739.816 1.142 4.913 7.599 3.252 17.985-3.711 23.198-6.964 5.214-16.591 3.278-21.505-4.321-.252-.39-.474-.791-.693-1.194a78.363 78.363 0 01-12.283 4.697c.075.463.144.928.184 1.404.775 9.188-5.479 17.215-13.966 17.929-8.487.715-15.986-6.153-16.769-15.341a17.31 17.31 0 01-.052-1.416 78.227 78.227 0 01-12.896-2.575c-.147.434-.3.866-.49 1.292-3.574 8.317-12.743 11.832-20.48 7.857-7.736-3.974-11.113-13.938-7.539-22.252.186-.434.397-.848.614-1.256a88.177 88.177 0 01-10.049-9.193c-.326.3-.675.593-1.039.866-6.963 5.218-16.59 3.279-21.506-4.32-4.914-7.6-3.252-17.987 3.712-23.2.357-.266.724-.503 1.094-.733a95.969 95.969 0 01-4.507-13.346 14.73 14.73 0 01-1.305.182zm87.269 36.728c30.816-2.594 53.519-31.741 50.708-65.099-2.81-33.36-30.07-58.3-60.885-55.703-30.815 2.596-53.524 31.74-50.714 65.106 2.81 33.367 30.062 58.291 60.891 55.696z" fill="#D8DEE8"/><path d="M174.184 105.657v78.606c0 2.609-1.785 4.682-3.981 4.628l-129.896-3.18c-1.998-.049-3.616-2.102-3.616-4.586v-74.834l137.493-.634z" fill="#fff"/><path d="M40.307 96.76l129.896-1.05c2.196-.018 3.981 2.083 3.981 4.694v8.055l-137.493.499v-7.665c0-2.489 1.618-4.523 3.616-4.532z" fill="url(#cpaint7_linear_1457_20327)"/><path d="M141.738 147.163l-7.26-30.433c-10.946 4.24-18.826 16.516-18.885 31.03l26.145-.597z" fill="url(#cpaint8_linear_1457_20327)"/><path d="M122.324 149.737c.404 6.921 3.166 13.097 7.33 17.361l11.383-17.803-18.713.442zM143.365 146.134c4.404-5.018 9.74-11.09 13.986-15.961-3.767-4.292-8.848-6.928-14.422-6.936a17.543 17.543 0 00-4.894.688l5.33 22.209zM144.284 148.05l16.039 14.28c2.251-3.961 3.568-8.756 3.568-13.934 0-6.385-2-12.231-5.29-16.67l-3.915 4.478c-4.338 4.948-8.685 9.893-10.402 11.846zM143.825 150.291l.308 22.814c6.093-.299 11.508-3.751 15.125-9.058l-15.433-13.756zM142.05 151.24l-10.993 17.181c3.205 2.756 7.086 4.465 11.29 4.684l-.297-21.865z" fill="#F4F7FA"/><path d="M46.086 130.631l65.827.284v-7.673l-65.827-.103v7.492zM46.086 144.19l65.827.61v-7.673l-65.827-.429v7.492zM46.086 157.749l65.827.934v-7.673l-65.827-.753v7.492zM46.086 171.308l65.827 1.26v-7.673l-65.827-1.081v7.494z" fill="#D8DEE8"/><path d="M42 103.035c0 1.156.79 2.089 1.761 2.084.973-.005 1.765-.948 1.765-2.105 0-1.158-.79-2.091-1.765-2.086-.973.005-1.761.95-1.761 2.107zM310.779 276.138v95.281c0 3.164-2.208 5.595-4.928 5.432l-159.835-9.587c-2.446-.147-4.422-2.69-4.422-5.682v-90.118l169.185 4.674z" fill="#fff"/><path d="M146.016 260.128l159.835 3.803c2.72.065 4.928 2.681 4.928 5.845v9.763l-169.185-4.858v-9.234c0-2.999 1.979-5.376 4.422-5.319z" fill="url(#cpaint9_linear_1457_20327)"/><path d="M158.792 351.678l132.99 7.246v-64.963l-132.99-4.46v62.177z" fill="#F4F7FA"/><path d="M158.792 351.679l132.982 7.245v-41.761c-4.352 28.181-8.986 34.236-12.478 34.358-4.913.173-7.558-11.406-14.983-12.068-7.366-.66-9.851 10.315-15.366 9.653-10.475-1.259-13.322-42.442-21.809-43.054-6.737-.489-11.293 25.069-17.226 23.777-4.334-.942-5.383-15.355-8.663-15.346-2.974.01-3.099 11.86-7.014 12.783-5.732 1.352-11.304-22.736-19.199-23.205-4.37-.261-9.81 6.696-16.254 30.87l.01 16.748z" fill="url(#cpaint10_linear_1457_20327)"/><path d="M147 267.483c0 1.401.979 2.563 2.179 2.594 1.201.031 2.184-1.078 2.184-2.48 0-1.403-.978-2.565-2.184-2.596-1.205-.031-2.179 1.079-2.179 2.482zM444.233 100.658v136.607c0 4.535-3.3 8.154-7.363 8.086l-233.446-3.986c-3.491-.06-6.315-3.506-6.315-7.696V107.431l247.124-6.773z" fill="#fff"/><path d="M203.424 91.2l233.446-7.64c4.063-.133 7.363 3.435 7.363 7.97v14l-247.127 6.402V98.995c.003-4.191 2.832-7.681 6.318-7.796z" fill="url(#cpaint11_linear_1457_20327)"/><path d="M204 101.732c0 2.006 1.455 3.588 3.251 3.541 1.796-.047 3.263-1.722 3.263-3.731 0-2.01-1.459-3.588-3.263-3.541-1.804.047-3.251 1.725-3.251 3.731z" fill="#fff"/><path d="M393.758 226.942l18.391.214v-101.52l-18.391.367v100.939z" fill="#F4F7FA"/><path d="M393.758 226.942l18.391.214v-48.2l-18.391.062v47.924z" fill="url(#cpaint12_linear_1457_20327)"/><path d="M368.517 226.65l18.101.21V126.145l-18.101.36V226.65z" fill="#F4F7FA"/><path d="M368.517 226.65l18.101.21v-23.909l-18.101-.074v23.773z" fill="url(#cpaint13_linear_1457_20327)"/><path d="M343.668 226.363l17.819.207v-99.924l-17.819.355v99.362z" fill="#F4F7FA"/><path d="M343.668 226.363l17.819.207v-12.455l-17.819-.135v12.383z" fill="url(#cpaint14_linear_1457_20327)"/><path d="M319.205 226.081l17.545.202V127.14l-17.545.349v98.592z" fill="#F4F7FA"/><path d="M319.205 226.081l17.545.202v-77.667l-17.545.23v77.235z" fill="url(#cpaint15_linear_1457_20327)"/><path d="M295.121 225.802l17.273.201v-98.379l-17.273.344v97.834z" fill="#F4F7FA"/><path d="M295.121 225.802l17.273.201v-68.311l-17.273.179v67.931z" fill="url(#cpaint16_linear_1457_20327)"/><path d="M271.401 225.528l17.012.197v-97.623l-17.012.339v97.087z" fill="#F4F7FA"/><path d="M271.401 225.528l17.012.197v-83.428l-17.012.261v82.97z" fill="url(#cpaint17_linear_1457_20327)"/><path d="M248.043 225.257l16.753.194v-96.878l-16.753.335v96.349z" fill="#F4F7FA"/><path d="M248.043 225.257l16.753.194v-59.506l-16.753.131v59.181z" fill="url(#cpaint18_linear_1457_20327)"/><path d="M225.036 224.991l16.501.191v-96.146l-16.501.33v95.625z" fill="#F4F7FA"/><path d="M225.036 224.991l16.501.191v-33.38l-16.501-.009v33.198z" fill="url(#cpaint19_linear_1457_20327)"/><path d="M453.298 287.136v79.302c0 2.633-1.724 4.671-3.851 4.552l-125.991-7.04c-1.943-.109-3.517-2.234-3.517-4.748v-75.691l133.359 3.625z" fill="#fff"/><path d="M323.456 273.985l125.991 2.993c2.12.05 3.851 2.224 3.851 4.858v8.126l-133.359-3.751v-7.766c0-2.506 1.574-4.507 3.517-4.46z" fill="url(#cpaint20_linear_1457_20327)"/><path d="M326 280.07c0 1.168.763 2.133 1.704 2.159.941.026 1.708-.902 1.708-2.071s-.765-2.135-1.708-2.158c-.943-.022-1.704.91-1.704 2.07z" fill="#fff"/><path d="M433.021 325.125c-1.169-2.784-3.362-4.821-5.937-5.296l-.181-13.558c7.325.6 13.594 6.459 16.39 14.535l-10.272 4.319z" fill="url(#cpaint21_linear_1457_20327)"/><path d="M425.021 319.792c-3.481.517-6.198 3.963-6.524 8.366l-10.752.103c.137-11.985 7.6-21.498 17.091-22.016l.185 13.547zM418.587 330.723c.633 4.544 3.786 8.118 7.592 8.291a6.251 6.251 0 003.153-.693l5.73 11.824a15.135 15.135 0 01-8.876 2.369c-9.608-.481-17.454-9.995-18.345-21.69l10.746-.101zM436.827 348.871l-5.738-11.827c1.732-1.694 2.838-4.336 2.838-7.348 0-.711-.063-1.421-.188-2.12l10.277-4.311c.552 2.257.831 4.572.829 6.896 0 7.903-3.176 14.741-8.018 18.71zM393.002 323.505c-1.142-2.743-3.271-4.752-5.776-5.219l-.175-13.372c7.125.587 13.213 6.36 15.94 14.326l-9.989 4.265z" fill="#D8DEE8"/><path d="M385.222 318.251c-3.385.512-6.024 3.913-6.339 8.255l-10.461.107c.134-11.82 7.394-21.2 16.625-21.726l.175 13.364z" fill="url(#cpaint22_linear_1457_20327)"/><path d="M378.962 329.037c.615 4.48 3.683 8.004 7.384 8.172a6.022 6.022 0 003.067-.685l5.575 11.657a14.572 14.572 0 01-8.645 2.342c-9.347-.466-16.981-9.845-17.845-21.388l10.464-.098zM396.706 346.925l-5.59-11.662c1.693-1.673 2.773-4.277 2.773-7.24 0-.703-.061-1.404-.183-2.096l9.991-4.265c.537 2.227.808 4.509.806 6.799 0 7.799-3.088 14.546-7.797 18.464zM354.069 321.931c-1.106-2.705-3.183-4.687-5.62-5.145l-.163-13.19c6.934.576 12.867 6.272 15.513 14.125l-9.73 4.21zM346.499 316.752c-3.293.507-5.863 3.863-6.169 8.154l-10.181.111c.129-11.66 7.196-20.925 16.18-21.441l.17 13.176zM340.407 327.396c.599 4.42 3.589 7.894 7.178 8.057a5.766 5.766 0 002.985-.679l5.425 11.496a14.047 14.047 0 01-8.41 2.317c-9.096-.455-16.526-9.702-17.368-21.088l10.19-.103z" fill="#D8DEE8"/><path d="M357.675 345.031l-5.43-11.499c1.631-1.653 2.686-4.223 2.686-7.153 0-.693-.059-1.385-.177-2.068l9.725-4.205c.522 2.198.785 4.448.783 6.706-.004 7.695-3.008 14.35-7.587 18.219z" fill="url(#cpaint23_linear_1457_20327)"/><defs><linearGradient id="cpaint0_linear_1457_20327" x1="2.961" y1="45.228" x2="577.636" y2="102.203" gradientUnits="userSpaceOnUse"><stop stop-color="#7C4EAB"/><stop offset="1" stop-color="#DD51D4"/></linearGradient><linearGradient id="cpaint1_linear_1457_20327" x1="267.136" y1="433.237" x2="299.595" y2="446.873" gradientUnits="userSpaceOnUse"><stop stop-color="#40447E"/><stop offset="1" stop-color="#3C3B6B"/></linearGradient><linearGradient id="cpaint2_linear_1457_20327" x1="-405006" y1="459278" x2="-353502" y2="491697" gradientUnits="userSpaceOnUse"><stop stop-color="#40447E"/><stop offset="1" stop-color="#3C3B6B"/></linearGradient><linearGradient id="cpaint3_linear_1457_20327" x1="-135273" y1="467785" x2="-713712" y2="467785" gradientUnits="userSpaceOnUse"><stop stop-color="#40447E"/><stop offset="1" stop-color="#3C3B6B"/></linearGradient><linearGradient id="cpaint4_linear_1457_20327" x1="165.958" y1="241.272" x2="507.533" y2="295.204" gradientUnits="userSpaceOnUse"><stop stop-color="#7C4EAB"/><stop offset="1" stop-color="#DD51D4"/></linearGradient><linearGradient id="cpaint5_linear_1457_20327" x1="-204021" y1="119016" x2="-1516750" y2="119016" gradientUnits="userSpaceOnUse"><stop stop-color="#40447E"/><stop offset="1" stop-color="#3C3B6B"/></linearGradient><linearGradient id="cpaint6_linear_1457_20327" x1="-117304" y1="69332" x2="-822024" y2="69332" gradientUnits="userSpaceOnUse"><stop stop-color="#40447E"/><stop offset="1" stop-color="#3C3B6B"/></linearGradient><linearGradient id="cpaint7_linear_1457_20327" x1="-371243" y1="11620.4" x2="-370593" y2="22644.3" gradientUnits="userSpaceOnUse"><stop stop-color="#FFC444"/><stop offset="1" stop-color="#F36F56"/></linearGradient><linearGradient id="cpaint8_linear_1457_20327" x1="-203724" y1="33443.1" x2="-197431" y2="52191.4" gradientUnits="userSpaceOnUse"><stop stop-color="#FFC444"/><stop offset="1" stop-color="#F36F56"/></linearGradient><linearGradient id="cpaint9_linear_1457_20327" x1="211.775" y1="247.742" x2="289.644" y2="375.07" gradientUnits="userSpaceOnUse"><stop stop-color="#AA80F9"/><stop offset="1" stop-color="#6165D7"/></linearGradient><linearGradient id="cpaint10_linear_1457_20327" x1="-246141" y1="122151" x2="-248293" y2="151653" gradientUnits="userSpaceOnUse"><stop stop-color="#AA80F9"/><stop offset="1" stop-color="#6165D7"/></linearGradient><linearGradient id="cpaint11_linear_1457_20327" x1="301.304" y1="68.829" x2="405.965" y2="239.964" gradientUnits="userSpaceOnUse"><stop stop-color="#FF9085"/><stop offset="1" stop-color="#FB6FBB"/></linearGradient><linearGradient id="cpaint12_linear_1457_20327" x1="-8822.39" y1="50149.6" x2="4104.54" y2="65542.8" gradientUnits="userSpaceOnUse"><stop stop-color="#FF9085"/><stop offset="1" stop-color="#FB6FBB"/></linearGradient><linearGradient id="cpaint13_linear_1457_20327" x1="-10978.9" y1="29044.6" x2="-8389.02" y2="35144.6" gradientUnits="userSpaceOnUse"><stop stop-color="#FF9085"/><stop offset="1" stop-color="#FB6FBB"/></linearGradient><linearGradient id="cpaint14_linear_1457_20327" x1="-13304.6" y1="16330" x2="-12804.5" y2="18538.9" gradientUnits="userSpaceOnUse"><stop stop-color="#FF9085"/><stop offset="1" stop-color="#FB6FBB"/></linearGradient><linearGradient id="cpaint15_linear_1457_20327" x1="-17164.4" y1="64573.9" x2="13457.4" y2="86161.4" gradientUnits="userSpaceOnUse"><stop stop-color="#FF9085"/><stop offset="1" stop-color="#FB6FBB"/></linearGradient><linearGradient id="cpaint16_linear_1457_20327" x1="-19282" y1="61130.5" x2="5384.3" y2="80594.5" gradientUnits="userSpaceOnUse"><stop stop-color="#FF9085"/><stop offset="1" stop-color="#FB6FBB"/></linearGradient><linearGradient id="cpaint17_linear_1457_20327" x1="-21810.4" y1="65806.4" x2="11943.1" y2="87285.6" gradientUnits="userSpaceOnUse"><stop stop-color="#FF9085"/><stop offset="1" stop-color="#FB6FBB"/></linearGradient><linearGradient id="cpaint18_linear_1457_20327" x1="-23416.8" y1="56725.1" x2="-4161.39" y2="73643" gradientUnits="userSpaceOnUse"><stop stop-color="#FF9085"/><stop offset="1" stop-color="#FB6FBB"/></linearGradient><linearGradient id="cpaint19_linear_1457_20327" x1="-24895.6" y1="37892.7" x2="-18953.6" y2="47057.4" gradientUnits="userSpaceOnUse"><stop stop-color="#FF9085"/><stop offset="1" stop-color="#FB6FBB"/></linearGradient><linearGradient id="cpaint20_linear_1457_20327" x1="375.155" y1="264.476" x2="436.949" y2="365.516" gradientUnits="userSpaceOnUse"><stop stop-color="#E38DDD"/><stop offset="1" stop-color="#9571F6"/></linearGradient><linearGradient id="cpaint21_linear_1457_20327" x1="-10543.5" y1="41998.6" x2="-7435.01" y2="46287.8" gradientUnits="userSpaceOnUse"><stop stop-color="#FF9085"/><stop offset="1" stop-color="#FB6FBB"/></linearGradient><linearGradient id="cpaint22_linear_1457_20327" x1="-15801" y1="48598.6" x2="-16598.6" y2="60406" gradientUnits="userSpaceOnUse"><stop stop-color="#FFC444"/><stop offset="1" stop-color="#F36F56"/></linearGradient><linearGradient id="cpaint23_linear_1457_20327" x1="-13765.6" y1="57554.1" x2="-11814.2" y2="69120.3" gradientUnits="userSpaceOnUse"><stop stop-color="#AA80F9"/><stop offset="1" stop-color="#6165D7"/></linearGradient></defs></svg><svg fill="none" viewBox="0 0 11 9" id="arrow" xmlns="http://www.w3.org/2000/svg"><path d="M6.469 8.434a1.09 1.09 0 01-1.845 0L.934 2.593A1.09 1.09 0 011.858.919h7.379c.859 0 1.38.947.922 1.674l-3.69 5.841z" fill="#331A2F" fill-opacity=".9"/></svg><svg fill="none" viewBox="0 0 43 48" id="member" xmlns="http://www.w3.org/2000/svg"><path d="M10.344 47.153c-.87-.386-1.257-.966-1.16-1.933v-1.547H1.74c-1.16 0-1.74-.58-1.74-1.74v-1.45c0-.483.29-.773.677-.773.386 0 .676.29.676.773v1.45c0 .193.097.29.29.29h7.541v-4.447c-1.837-1.16-2.417-1.934-2.707-4.06-1.16 0-2.32-.097-3.383 0-.967.096-1.644 1.16-1.74 2.223v1.354c0 .483-.29.773-.677.773-.387 0-.677-.29-.677-.773v-1.547c.097-1.16.677-2.127 1.643-2.804.097-.096.194-.096.29-.193-.386-1.257-.87-2.417-1.16-3.577-1.546-6.187-.58-11.89 2.997-17.208.194-.29.29-.483.097-.87a2.505 2.505 0 01.483-2.9c.774-.774 1.837-1.064 2.9-.58.194.193.387.096.58-.097 1.16-.773 2.224-1.547 3.384-2.32.483-.29.87-.193 1.063.193.194.387 0 .677-.386.967-1.064.773-2.127 1.45-3.19 2.224-.194.096-.194.29-.097.483.387.967.193 1.933-.483 2.61-.677.774-1.547 1.064-2.61.774-.29-.097-.387 0-.58.193-1.934 2.803-3.094 5.897-3.384 9.377-.387 3.48.193 6.767 1.547 9.958.096.29.29.386.676.386h3.964c.097-.386 0-.58-.193-.773-1.16-.967-1.934-2.127-2.127-3.577 0-.29-.097-.387-.387-.483-1.74-.484-2.32-2.61-1.063-3.964.096-.097.193-.387.193-.58V18.73c0-2.127 1.353-3.673 3.287-4.06.29-.097.677-.097.967-.097h4.35c.967 0 1.933.29 2.707.967.097.097.29.097.386.097.87-.387 1.74-.484 2.707-.484h1.354c.387 0 .677.29.773.677 0 .387-.29.677-.773.677h-2.03a3.286 3.286 0 00-3.287 3.093c-.097 1.45 0 2.9 0 4.35v.194c.386.097.386-.097.483-.387a7.628 7.628 0 011.16-2.9c.387-.483.58-.58 1.16-.387 1.837.58 3.577 1.064 5.51 1.257.484 0 1.064 0 1.547-.097.29-.096.677-.29.87-.483.387-.387.87-.387 1.16.097.484.773.87 1.643.967 2.513 0 .194.097.484.387.387v-.29-2.9c0-.484-.097-.774-.677-.774-.386-.096-.58-.386-.58-.773 0-.773-.29-1.353-.773-1.934a2.742 2.742 0 00-2.127-.966h-.773a.66.66 0 01-.677-.677.66.66 0 01.677-.677c1.063-.096 2.127.097 2.997.58.966-.966 2.126-1.256 3.383-1.16h4.254c1.837 0 3.287 1.16 3.77 2.9 0 .097.097.29.29.387.58.387.87.967.87 1.644v3.287c0 .193.097.483.29.58 1.257 1.353.677 3.383-1.063 3.963-.29.097-.29.194-.387.387-.29 1.45-.967 2.707-2.127 3.673-.193.097-.193.387-.386.58l.096.097h4.061c.386 0 .483-.096.676-.386 1.354-3.19 1.837-6.478 1.547-9.861-.29-3.384-1.45-6.477-3.287-9.28-.193-.29-.387-.387-.677-.29-.966.29-1.837 0-2.513-.774-.677-.774-.87-1.644-.484-2.61-.096 0-.193-.194-.386-.387-2.804-2.224-5.994-3.674-9.57-4.254-.388-.096-.581 0-.774.387-.967 1.74-3.48 1.643-4.447 0-.194-.29-.387-.387-.677-.29l-3.48.87c-.194.097-.58.097-.774 0-.193-.097-.386-.387-.29-.58.097-.193.29-.58.484-.58 1.16-.387 2.223-.58 3.383-.87h.194c.58 0 .87-.194 1.063-.774.483-1.16 1.354-1.643 2.514-1.643 1.063.097 1.933.58 2.32 1.643.193.387.386.484.773.58 3.867.58 7.25 2.03 10.248 4.544.29.193.483.29.87.097.966-.387 2.126-.097 2.803.677.677.773.87 1.933.387 2.9-.097.193-.194.386 0 .676 4.35 6.478 4.93 13.341 2.03 20.592 0 .097-.097.193-.097.29.194.097.29.193.484.387.966.773 1.45 1.74 1.45 2.996v5.898c0 1.16-.58 1.74-1.74 1.74h-7.444v1.546c.096.967-.29 1.547-1.16 1.934-7.444-.097-14.695-.097-22.042-.097zm15.854-11.02c-.29 3.093-2.61 4.736-4.833 4.736-1.16 0-2.127-.29-2.997-1.063-1.257-.967-1.837-2.223-1.933-3.77H13.34c-1.74 0-2.804 1.063-2.804 2.803v6.38c0 .388.097.58.58.58h20.591c.194 0 .484.098.484-.29v-6.863c0-1.257-1.063-2.417-2.223-2.417-1.354-.193-2.514-.096-3.77-.096zm-.29-13.245c-3.093 1.064-5.8-.096-8.603-.773-.097.097-.194.193-.194.387-.483.676-.677 1.45-.677 2.223 0 1.643-.096 3.287.097 4.834.29 2.513 2.61 4.35 5.124 4.157 2.513-.194 4.543-2.224 4.543-4.737v-4.35c0-.58-.193-1.16-.29-1.74zm-18.85-1.45c-.098.58-.29 1.064-.388 1.547a34.128 34.128 0 000 4.447c.194 2.61 2.514 4.35 5.027 3.963 1.257-.193 2.32-.966 2.997-2.03-.096 0-.193-.096-.193-.096-1.643-.677-2.223-2.224-1.353-3.77 0-.097.096-.097.096-.194v-2.803c-2.127 0-4.06-.484-6.187-1.064zM41.182 42.32v-6.477c0-.967-.773-1.934-1.74-2.03-1.16-.097-2.224 0-3.384 0-.29 2.126-.87 2.996-2.707 4.06v4.447h7.831zM27.939 29.269c0 .096.096.193.096.193.967 1.45 2.9 2.224 4.544 1.837 1.837-.483 3.19-1.934 3.287-3.77a29.82 29.82 0 000-4.157c0-.484-.193-1.064-.193-1.547-2.224 1.063-4.254.387-6.38 0v2.9c0 .29.096.483.192.677.677 1.353.194 2.997-1.256 3.577-.097.193-.194.29-.29.29zm-.87-12.568l.87 2.03c.096.29.193.387.386.58.29.29.58.58.87.967l.387.387c.677.193 1.257.387 1.934.387.966.096 1.836.096 2.803 0 .29 0 .483-.387.677-.58.193-.194.386-.484.58-.484.193 0 .483.193.677.387.29.386.483.773.676 1.256v-2.03c0-.096-.193-.29-.29-.386-.483-.097-.676-.387-.676-.87-.097-1.257-1.064-2.224-2.32-2.224h-4.93c-.678-.097-1.258.194-1.644.58zM5.607 21.438c.193-.29.387-.58.483-.87.387-.58.58-.677 1.257-.483.967.29 1.934.483 2.9.773.967.194 2.03.387 3.094.194-.097-1.644.097-3.19 1.257-4.35-.484-.388-.967-.58-1.547-.58H8.217c-1.45 0-2.513.966-2.61 2.416-.097.87 0 1.933 0 2.9zM23.298 34.78c-1.546.387-2.03.483-4.06 0 .29 1.16-.387 1.45-1.353 1.257.096 1.933 1.643 3.48 3.576 3.48 1.934-.097 3.48-1.643 3.384-3.383-.387-.097-.87-.097-1.063-.29-.387-.194-.387-.677-.484-1.064zm-13.63 1.74c.483-.483.966-.87 1.45-1.256.773-.484 1.546-.58 2.513-.58.193 0 .387-.097.387-.194.096-.193.096-.483.193-.87-.87.097-1.45-.097-1.353-1.16a6.457 6.457 0 01-3.577.097c-.097.386-.194.773-.387.966-.193.194-.677.194-.967.29-.096 1.064.677 2.224 1.74 2.707zm20.108-3.963c-.194.966-.194.966-1.257 1.16-.097.87 0 .966.87.966 1.063 0 2.03.29 2.803 1.064.29.193.484.483.774.773 1.16-.483 2.03-1.837 1.837-2.803-1.064-.097-1.16 0-1.257-1.16-1.354.386-2.514.29-3.77 0zM6.187 11.287a1.28 1.28 0 001.257-1.256c0-.677-.58-1.257-1.16-1.257-.677 0-1.257.483-1.257 1.16-.097.773.483 1.353 1.16 1.353zM21.268 4.52a1.28 1.28 0 001.257-1.256c0-.677-.58-1.16-1.257-1.257a1.28 1.28 0 00-1.257 1.257c.097.773.58 1.256 1.257 1.256zm15.178 6.767a1.28 1.28 0 001.257-1.256c0-.677-.484-1.16-1.16-1.257-.677 0-1.257.483-1.257 1.16-.097.773.483 1.353 1.16 1.353zM17.788 34.682c.097-.58-.097-.966-.483-.966-.58-.097-1.16 0-1.837 0 0 .386-.097.676-.097.966h2.417zm9.28-.966h-1.45c-.676 0-.966.29-.773.966h2.417c-.097-.386-.097-.676-.193-.966zm1.354-1.45c0-.87-.87-.967-1.16-1.547l-.773 1.547h1.933zm-12.374 0c-.29-.484-.483-.967-.774-1.45-.29.29-.483.483-.773.676-.29.194-.58.387-.387.774h1.934zm-1.064-4.35v-2.224c-.58.096-.87.483-.87.966 0 .58.29 1.064.87 1.257zm12.568-2.224v2.223c.58-.096.87-.58.87-1.063.097-.58-.29-.967-.87-1.16zM5.317 24.338c-.483.194-.677.58-.677.967s.194.677.677.87v-1.837zm31.999 1.837c.483-.193.677-.483.677-.967 0-.386-.194-.676-.677-.87v1.837z" fill="#fff"/></svg><svg fill="none" viewBox="0 0 17 17" id="phone" xmlns="http://www.w3.org/2000/svg"><path d="M11.1 11.513l1.347-1.343a1.317 1.317 0 011.406-.288l1.64.654a1.31 1.31 0 01.818 1.198v2.997a1.297 1.297 0 01-.854 1.21c-.165.06-.34.088-.516.079C3.444 15.306 1.124 5.597.686 1.88a1.297 1.297 0 01.77-1.333c.167-.075.35-.112.534-.111h2.902a1.3 1.3 0 011.202.815l.655 1.636a1.291 1.291 0 01-.282 1.402L5.121 5.633s.775 5.232 5.98 5.88z" fill="#331A2F"/></svg><svg fill="none" viewBox="0 0 48 47" id="purse" xmlns="http://www.w3.org/2000/svg"><path d="M0 43.075v-19.95c.3-.975 1.05-1.5 1.875-1.95.3-.15.6-.3.9-.375.375-.075.45-.3.45-.6V6.1c0-3.375 2.4-5.85 5.625-5.85h33.375c1.575 0 2.55.975 2.55 2.625V9.925c2.25.75 3.225 2.025 3.225 4.35v23.25c0 .45 0 .9-.15 1.35-.45 1.8-2.025 3-4.05 3H23.25v.3c.075 1.125-.45 1.95-1.425 2.475-.825.45-1.725.825-2.55 1.05-2.4.675-4.95.9-7.425.9-2.925 0-5.85-.225-8.7-1.2C1.8 45.025.525 44.5 0 43.075zM46.425 21.85v-.525-7.2c0-1.725-.975-2.7-2.7-2.7H9c-1.5 0-2.85-.45-3.975-1.425-.075-.075-.15-.075-.225-.15v10.2c.15 0 .3 0 .45-.075 3.975-.825 7.95-.825 12-.15 1.575.225 3.15.675 4.575 1.5.9.675 1.425 1.425 1.425 2.625-.075 5.25 0 10.425 0 15.675v.6h20.625c1.575 0 2.625-.975 2.625-2.625v-7.275-.45h-3.75c-.6 0-1.2-.075-1.8-.3-1.725-.675-2.7-2.625-2.325-4.425.375-1.875 1.95-3.225 3.825-3.225 1.2-.075 2.55-.075 3.975-.075zM43.2 6.625H7.575c-.825 0-1.2-.3-1.2-.825 0-.525.375-.825 1.2-.825H43.2V2.95c0-.9-.225-1.125-1.125-1.125h-33c-.375 0-.75 0-1.05.075C6 2.35 4.65 4.225 4.8 6.1c.225 2.1 1.875 3.675 3.975 3.675h34.05c.15 0 .225 0 .375-.075V6.625zm-31.575 14.4c-2.25 0-4.5.15-6.675.75-.975.3-1.95.675-2.85 1.125-.675.375-.675.75 0 1.125.525.3 1.05.525 1.575.75 1.725.6 3.45.825 5.25.975 3.15.225 6.3.15 9.45-.6.9-.225 1.8-.6 2.7-1.05.75-.375.75-.825 0-1.275-.45-.3-.975-.525-1.5-.675-2.625-.9-5.25-1.05-7.95-1.125zm-10.05 4.65c0 .675.075 1.35 0 2.025-.075.6.225 1.05.75 1.275 1.125.375 2.175.9 3.375 1.125 3.15.675 6.3.675 9.525.375a18.39 18.39 0 005.25-1.2c.825-.375 1.35-.825 1.2-1.875-.075-.525 0-1.125 0-1.65-6.525 2.325-13.8 2.325-20.1-.075zm0 9.6c0 .75.075 1.425 0 2.1 0 .6.225.975.675 1.125.825.375 1.65.75 2.55.975 4.2 1.05 8.475.975 12.75.225 1.2-.225 2.4-.525 3.45-1.2.225-.15.6-.375.6-.675.075-.825 0-1.725 0-2.625-3.225 1.5-6.6 1.8-9.975 1.8-3.45.075-6.825-.225-10.05-1.725zm0 4.8v2.175c0 .525.15.9.6 1.125.825.375 1.575.75 2.4.975 4.275 1.05 8.625 1.05 12.975.225 1.125-.225 2.25-.75 3.375-1.125.225-.075.6-.375.6-.6.075-.825 0-1.725 0-2.625-6.3 2.25-13.65 2.25-19.95-.15zm20.025-9.6c-3.225 1.5-6.6 1.8-9.975 1.8s-6.825-.3-9.975-1.8V32.8c0 .375.15.675.45.825.6.3 1.2.6 1.8.825 1.95.675 4.05.9 6.075.975 2.85.15 5.7 0 8.475-.75.9-.225 1.8-.675 2.625-1.05.225-.075.525-.45.525-.675v-2.475zm24.75-2.25v-4.8h-4.125c-1.2.075-2.175 1.125-2.175 2.325 0 1.2.9 2.325 2.1 2.4 1.35.15 2.775.075 4.2.075z" fill="#CF51CE"/><path d="M38.025 14.65H32.25c-.3 0-.6-.15-.825-.3-.15-.15-.225-.6-.075-.75.15-.224.45-.45.75-.45.6-.075 1.2 0 1.8 0h10.2c.45.075.825.375.825.825 0 .45-.375.75-.825.75h-4.2c-.675-.075-1.275-.075-1.875-.075zM27.974 14.651h-.825c-.45 0-.75-.3-.75-.75s.3-.825.75-.825h1.725c.45 0 .75.375.75.825 0 .45-.375.75-.825.75h-.825zM42.374 26.65a.832.832 0 01-.825-.825c0-.45.375-.825.825-.825.45 0 .75.375.75.75.075.525-.3.9-.75.9z" fill="#CF51CE"/></svg><svg fill="none" viewBox="0 0 48 48" id="site" xmlns="http://www.w3.org/2000/svg"><path d="M3.2 40.6h21.6V43a2.4 2.4 0 002.4 2.4h3.2c.7 0 1.363-.313 1.813-.837.012 0 .024 0 .037-.013.587.55 1.35.85 2.15.85H44a2.4 2.4 0 002.4-2.4c0-.413-.112-.825-.325-1.175a2.36 2.36 0 00.8-3.2c.6-.375 1-1 1.1-1.7.1-.7-.125-1.412-.6-1.925.638-.7.8-1.712.413-2.575a2.417 2.417 0 00-2.2-1.425h-2.4V6.2c0-1.763-1.438-3.2-3.2-3.2H3.2A3.206 3.206 0 000 6.2v31.2c0 1.763 1.438 3.2 3.2 3.2zm27.2 3.2h-3.2a.806.806 0 01-.8-.8v-7.2c0-.438.363-.8.8-.8h3.2c.438 0 .8.362.8.8V43c0 .438-.363.8-.8.8zm16-10.4c0 .438-.362.8-.8.8h-2.4c-.438 0-.8.362-.8.8 0 .438.363.8.8.8h2.4c.438 0 .8.363.8.8 0 .438-.362.8-.8.8h-2.4c-.438 0-.8.363-.8.8 0 .438.363.8.8.8h1.6c.438 0 .8.362.8.8 0 .438-.363.8-.8.8h-1.6c-.438 0-.8.362-.8.8 0 .438.363.8.8.8h.8c.438 0 .8.362.8.8 0 .438-.362.8-.8.8h-9.6c-.887 0-1.6-.712-1.6-1.6v-6.738c1-.625 1.75-1.587 2.125-2.7A20.952 20.952 0 0036 26.138c0-.112.075-.2.175-.237.275-.05.988-.175 1.663 1.15.374.762.562 1.6.55 2.462V31.8c0 .437.362.8.8.8h6.4c.45 0 .812.362.812.8zM40 31v-1.488c.013-1.1-.237-2.2-.725-3.187-.788-1.537-1.987-2.25-3.375-2-.875.163-1.5.925-1.5 1.813 0 2.074-.337 4.15-.987 6.125a3.537 3.537 0 01-1.388 1.8 2.446 2.446 0 00-1.625-.65h-3.2a2.4 2.4 0 00-2.4 2.4v3.2H3.2c-.888 0-1.6-.713-1.6-1.6V11h40v20H40zM3.2 4.6H40c.888 0 1.6.713 1.6 1.6v3.2h-40V6.2c0-.888.712-1.6 1.6-1.6z" fill="#fff"/><path fill-rule="evenodd" clip-rule="evenodd" d="M4.8 6.999c0 .437-.363.8-.8.8a.806.806 0 01-.8-.8c0-.438.362-.8.8-.8.437 0 .8.362.8.8zM8 6.999c0 .437-.362.8-.8.8a.806.806 0 01-.8-.8c0-.438.363-.8.8-.8.438 0 .8.362.8.8zM11.2 6.999c0 .437-.363.8-.8.8a.806.806 0 01-.8-.8c0-.438.362-.8.8-.8.437 0 .8.362.8.8z" fill="#fff"/><path d="M6.4 27.8h12.8a2.4 2.4 0 002.4-2.4v-9.6a2.4 2.4 0 00-2.4-2.4H6.4A2.4 2.4 0 004 15.8v9.6a2.4 2.4 0 002.4 2.4zm1.963-1.6l3.7-5.825 1.774 2.226-2.274 3.6h-3.2zm10.837 0h-5.737l4.212-6.624L20 22.488v2.925a.803.803 0 01-.8.788zM5.6 15.8c0-.437.363-.8.8-.8h12.8c.438 0 .8.363.8.8v4.125l-1.775-2.224a.81.81 0 00-.663-.3.804.804 0 00-.637.375l-2.163 3.4-2.137-2.675a.81.81 0 00-.662-.3.804.804 0 00-.638.375L6.475 26.2H6.4a.806.806 0 01-.8-.8v-9.6z" fill="#fff"/><path fill-rule="evenodd" clip-rule="evenodd" d="M8.8 17.4c0 .437-.363.8-.8.8a.806.806 0 01-.8-.8c0-.438.362-.8.8-.8.437 0 .8.362.8.8zM38.4 14.199H24.8c-.438 0-.8.363-.8.8 0 .438.363.8.8.8h13.6c.438 0 .8-.362.8-.8 0-.438-.363-.8-.8-.8zM38.4 17.4H24.8c-.438 0-.8.363-.8.8 0 .438.363.8.8.8h13.6c.438 0 .8-.362.8-.8 0-.437-.363-.8-.8-.8zM38.4 20.6H24.8c-.438 0-.8.362-.8.8 0 .437.363.8.8.8h13.6c.438 0 .8-.363.8-.8 0-.438-.363-.8-.8-.8zM32 23.801h-7.2c-.438 0-.8.363-.8.8 0 .438.363.8.8.8H32c.438 0 .8-.363.8-.8 0-.438-.362-.8-.8-.8zM23.2 31H4.8c-.438 0-.8.363-.8.8 0 .437.362.8.8.8h18.4c.438 0 .8-.363.8-.8 0-.438-.363-.8-.8-.8zM20.8 34.199h-16c-.438 0-.8.363-.8.8 0 .438.362.8.8.8h16c.438 0 .8-.362.8-.8 0-.438-.363-.8-.8-.8z" fill="#fff"/></svg><svg fill="none" viewBox="0 0 48 48" id="target" xmlns="http://www.w3.org/2000/svg"><g clip-path="url(#iclip0_1457_20712)" fill="#fff"><path d="M34.875 14.55l-4.125 4.125c1.65 2.175 2.25 4.65 1.65 7.35-.525 2.1-1.725 3.825-3.525 5.025-3.525 2.475-8.25 1.95-11.175-1.2-3-3.225-3.15-7.95-.3-11.325 2.55-3.075 7.5-4.575 11.925-1.35 1.35-1.35 2.7-2.7 4.05-4.125-2.4-2.025-5.175-3.225-8.475-3.45v2.625c0 .75-.375 1.2-.975 1.2s-.975-.45-.975-1.2V6.45v-.675c-1.875.075-3.675.45-5.4 1.125-6 2.4-9.825 6.75-11.4 13.05 0 .15-.075.225-.075.375-.15.525-.6.825-1.125.75-.525-.15-.825-.6-.75-1.2.525-2.7 1.575-5.175 3.15-7.35 3.75-5.025 8.625-7.95 14.85-8.55.225 0 .525-.075.825-.075V1.35c0-.9.3-1.35.975-1.35.6 0 .975.45.975 1.275v6.45c3.75.3 7.05 1.65 9.825 4.05.45-.45.825-.9 1.35-1.425-.975-.675-1.875-1.425-2.925-2.025-1.65-.975-3.375-1.725-5.25-2.1-.15 0-.3-.075-.375-.075a.963.963 0 01-.675-1.2c.15-.525.6-.825 1.2-.675 2.4.45 4.575 1.35 6.6 2.7.975.675 1.875 1.35 3 2.175.075-.3.3-.525.3-.75V5.325c0-.375.15-.825.45-1.05C39.675 3 40.95 1.725 42.225.45c.375-.375.75-.525 1.2-.3.45.15.6.6.6 1.05v2.925h2.925c.525 0 .9.15 1.125.6.15.525 0 .9-.375 1.2-1.275 1.2-2.475 2.475-3.675 3.675-.3.3-.75.45-1.125.45-.975.075-2.025 0-3 0-.225 0-.525.225-.825.3 1.65 1.875 2.85 3.75 3.75 5.925.9 2.175 1.35 4.35 1.5 6.75h2.625c.75 0 1.2.375 1.2.975s-.45.975-1.2.975h-6.375c-.45 1.65-.675 3.3-1.275 4.8-1.95 5.025-5.55 8.325-10.725 9.9-.15 0-.225.075-.375.075-.6.15-1.05-.15-1.2-.675-.15-.525.15-.975.75-1.2.375-.15.75-.225 1.05-.375 5.7-2.175 8.925-6.375 9.6-12.375V24.9h-2.55c-.75 0-1.2-.375-1.2-.975s.45-.975 1.2-.975h6.45c-.3-4.275-1.8-8.025-4.575-11.175l-1.35 1.35c.075.075.15.225.3.375 1.425 1.725 2.475 3.675 3.075 5.85.3.9.075 1.425-.525 1.65-.6.15-1.05-.225-1.275-1.05-.75-1.95-1.725-3.75-3.075-5.4zM27.9 18.675c-2.25-1.875-6.15-2.025-8.775.675-2.55 2.7-2.55 6.675.075 9.3 2.625 2.625 6.675 2.7 9.3.15 2.7-2.55 2.7-6.45.75-8.85L28.2 21c-.3.225-.225.45-.075.75.525 1.05.75 2.1.45 3.225-.6 2.625-3.3 4.275-5.85 3.6-2.625-.675-4.2-3.45-3.45-6 .825-2.625 3.6-4.2 6.075-3.15 1.05.45 1.65.15 2.175-.6.225 0 .3-.075.375-.15zm-1.35 4.05c-.675.675-1.275 1.35-1.875 1.95-.375.375-.9.375-1.275 0-.375-.375-.45-.825-.15-1.275l.45-.45 1.575-1.575c-1.425-.6-2.85-.15-3.6.975a2.847 2.847 0 00.375 3.6c.975.975 2.4 1.125 3.6.375 1.05-.75 1.5-2.175.9-3.6zM39.9 8.1h2.325c.15 0 .375 0 .45-.075L44.7 6h-1.65C42.375 6 42 5.625 42 4.95V3.225l-1.95 1.95a.573.573 0 00-.15.375c-.075.9 0 1.65 0 2.55z"/><path d="M3.75 24.975H1.125c-.75 0-1.2-.375-1.2-.975s.45-.9 1.125-.975H7.5c.3-1.275.45-2.475.825-3.675.3-.975.75-1.95 1.125-2.85.3-.6.825-.825 1.35-.525.525.3.675.825.3 1.425-.9 1.8-1.5 3.675-1.575 5.7h2.4c.9 0 1.35.3 1.425.975 0 .675-.45.975-1.425.975H5.7c.075 1.575.3 3.075.825 4.5 2.25 6.525 6.675 10.65 13.35 12.3.225.075.525.15.75.3.375.3.525.675.3 1.125-.225.45-.6.675-1.125.6-2.325-.525-4.575-1.35-6.6-2.625C7.8 37.5 4.65 32.4 3.9 25.8c0-.225-.075-.45-.075-.675 0 0 0-.075-.075-.15z"/><path d="M24.975 44.175V46.8c0 .75-.375 1.2-.975 1.2s-.975-.45-.975-1.2v-5.85-.6c-.975-.15-1.875-.3-2.775-.525C14.175 38.25 10.2 34.5 8.325 28.5c-.075-.225-.15-.375-.15-.6 0-.525.225-.825.675-.975.45-.15.9 0 1.125.45l.225.675c1.65 5.7 6.975 10.05 12.825 10.275v-2.55c0-.75.375-1.2.9-1.2.6 0 .975.45.975 1.2V42.3c1.2-.225 2.4-.375 3.525-.6 2.025-.45 3.825-1.275 5.55-2.4.15-.075.3-.225.45-.3.45-.15.825-.075 1.125.3.3.375.225.825-.075 1.125-.15.15-.375.3-.6.45-2.925 1.875-6.15 2.925-9.6 3.225 0 0-.15.075-.3.075zM40.35 35.325c-.974 0-1.35-.75-.974-1.575a71.769 71.769 0 001.95-4.2c.224-.6.374-1.275.524-1.875.15-.6.6-.9 1.125-.825.526.15.825.6.75 1.275-.45 2.4-1.35 4.575-2.7 6.6-.224.3-.524.525-.675.6zM15.375 12.225c-.225-.225-.6-.45-.75-.825-.225-.45.075-.825.45-1.125 1.425-.9 3-1.65 4.65-2.025.525-.15.9 0 1.125.45.3.525.075 1.2-.525 1.425-1.575.45-3 1.05-4.35 1.95-.075 0-.225 0-.6.15zM13.65 13.65c0 .525-.45.9-.975.9-.525 0-.9-.45-.9-.975 0-.525.45-.9.975-.9.45 0 .9.45.9.975zM38.7 37.35c0 .525-.45.975-.975.975-.525 0-.975-.375-.975-.9s.375-.975.9-.975c.6 0 1.05.375 1.05.9z"/></g><defs><clipPath id="iclip0_1457_20712"><path fill="#fff" d="M0 0h48v48H0z"/></clipPath></defs></svg></svg>