<svg width="455" height="448" viewBox="0 0 455 448" fill="none" xmlns="http://www.w3.org/2000/svg">
<path opacity="0.5" d="M410.147 85.3143C403.221 75.813 343.927 -2.76725 247.815 1.0611C243.012 1.25112 149.276 6.21308 114.703 67.8107C89.1278 113.376 116.205 153.802 85.0046 184.846C57.8114 211.897 24.4079 193.992 7.70208 215.866C-17.7465 249.186 22.773 339.176 85.0472 389.364C149.341 441.184 272.345 479.202 367.955 410.064C475.282 332.44 474.199 173.176 410.147 85.3143Z" fill="url(#paint0_linear_1457_20396)" fill-opacity="0.5"/>
<g style="mix-blend-mode:soft-light">
<g style="mix-blend-mode:soft-light">
<path d="M110.941 284.066C102.012 284.058 93.0924 283.47 84.2393 282.306L84.3425 281.519C141.73 289.008 178.597 270.215 182.631 268.037C162.461 236.605 176.718 190.359 176.865 189.897L177.622 190.136C177.476 190.598 163.224 236.845 183.529 267.963L183.757 268.313L183.395 268.523C183.069 268.705 155.985 284.066 110.941 284.066Z" fill="white"/>
</g>
</g>
<path d="M146.387 243.902C145.829 243.901 145.292 243.692 144.879 243.317C144.467 242.941 144.209 242.426 144.156 241.87C142.19 221.243 135.464 201.642 125.217 186.683C116.14 173.429 105.335 165.52 96.3058 165.52H96.2779C63.3921 165.584 56.5119 241.086 56.4464 241.857C56.3808 242.439 56.0908 242.972 55.6381 243.343C55.1855 243.713 54.606 243.893 54.0229 243.843C53.4399 243.793 52.8994 243.518 52.5164 243.075C52.1335 242.633 51.9384 242.058 51.9726 241.474C52.2544 238.198 59.2951 161.11 96.2681 161.041H96.3074C106.977 161.041 118.861 169.463 128.925 184.157C139.592 199.734 146.59 220.083 148.627 241.454C148.656 241.748 148.627 242.046 148.541 242.328C148.455 242.611 148.314 242.874 148.126 243.103C147.938 243.331 147.707 243.52 147.446 243.659C147.185 243.797 146.899 243.883 146.605 243.912C146.532 243.905 146.459 243.902 146.387 243.902Z" fill="url(#paint1_linear_1457_20396)"/>
<path d="M9.38384 399.293L52.6752 421.21L78.9134 340.72L35.6859 232.805L23.431 235.809L4.83471 390.778C4.62658 392.493 4.95157 394.23 5.7655 395.753C6.57943 397.277 7.8428 398.513 9.38384 399.293Z" fill="url(#paint2_linear_1457_20396)"/>
<path style="mix-blend-mode:multiply" opacity="0.52" d="M78.914 340.72L35.6865 232.805L28.459 234.584C27.634 246.202 27.674 257.865 28.5786 269.477C31.4748 306.215 41.0973 316.439 36.4417 342.069C32.5658 363.38 24.1015 366.273 24.8403 380.612C25.6463 396.227 36.5384 409.304 49.4879 419.586L52.6823 421.203L78.914 340.72Z" fill="url(#paint3_linear_1457_20396)"/>
<path d="M35.6865 232.811H197.1L250.52 405.269L52.6758 421.21L35.6865 232.811Z" fill="url(#paint4_linear_1457_20396)"/>
<path d="M85.6893 247.592C85.1824 247.593 84.6902 247.422 84.2928 247.108C83.8954 246.793 83.6162 246.353 83.5008 245.859C83.0421 243.903 72.4367 197.698 87.3897 175.014C91.6751 168.516 97.6642 164.547 105.187 163.22C143.847 156.408 167.641 239.431 168.635 242.97C168.724 243.256 168.754 243.557 168.724 243.856C168.695 244.154 168.606 244.444 168.462 244.707C168.319 244.97 168.124 245.202 167.89 245.389C167.655 245.576 167.386 245.714 167.097 245.795C166.808 245.877 166.506 245.899 166.209 245.861C165.911 245.824 165.624 245.727 165.364 245.577C165.105 245.427 164.878 245.226 164.697 244.987C164.517 244.747 164.386 244.474 164.312 244.183C164.08 243.364 140.652 161.518 105.966 167.641C99.6185 168.762 94.7679 171.982 91.1394 177.486C77.2381 198.568 87.7649 244.374 87.873 244.834C88.0086 245.414 87.9085 246.024 87.5945 246.53C87.2806 247.036 86.7786 247.397 86.1988 247.533C86.0317 247.572 85.8608 247.592 85.6893 247.592Z" fill="url(#paint5_linear_1457_20396)"/>
<g style="mix-blend-mode:multiply" opacity="0.3">
<path style="mix-blend-mode:multiply" opacity="0.3" d="M197.1 232.805H117.024C113.074 236.822 110.271 241.451 110.003 246.646C108.745 271.054 164.838 279.061 170.249 312.499C174.151 336.624 150.139 364.46 128.714 376.86C106.14 389.926 90.8445 383.31 75.577 397.816C68.8704 404.19 64.7848 412.159 62.3555 420.422L250.52 405.261L197.1 232.805Z" fill="url(#paint6_linear_1457_20396)"/>
</g>
<path d="M91.9031 248.952C92.4583 245.531 90.1356 242.308 86.7153 241.753C83.295 241.198 80.0722 243.521 79.517 246.941C78.9618 250.361 81.2844 253.584 84.7048 254.139C88.1251 254.695 91.3479 252.372 91.9031 248.952Z" fill="url(#paint7_linear_1457_20396)"/>
<path d="M174.649 247.578C175.204 244.148 172.872 240.918 169.442 240.363C166.011 239.809 162.781 242.14 162.227 245.571C161.672 249.001 164.004 252.231 167.434 252.786C170.864 253.34 174.095 251.009 174.649 247.578Z" fill="url(#paint8_linear_1457_20396)"/>
<path d="M315.61 53.9192C329.631 172.412 343.651 289.674 357.671 405.705C358.301 410.908 354.707 415.507 349.678 415.937C293.326 421.283 236.977 426.743 180.631 432.318C170.579 432.81 165.059 427.189 164.413 421.567C149.982 296.314 135.551 169.751 121.119 41.8772C120.464 36.1338 125.337 31.1981 135.389 31.6895C192.016 35.7303 248.642 39.7165 305.265 43.648C310.33 43.9822 314.98 48.6001 315.61 53.9192Z" fill="#26264F"/>
<path d="M323.435 53.6735C337.545 172.69 351.654 290.455 365.762 406.966C366.396 412.185 362.781 416.813 357.719 417.244C299.207 422.2 240.696 427.254 182.185 432.405C176.846 432.88 171.938 428.65 171.288 423C156.763 297.174 142.238 170.022 127.713 41.543C127.058 35.7751 130.932 31.3488 136.308 31.7141C195.213 35.6457 254.117 39.5281 313.022 43.3614C318.123 43.6988 322.803 48.3331 323.435 53.6735Z" fill="url(#paint9_linear_1457_20396)"/>
<path d="M320.037 73.1429C333.104 183.412 346.172 292.605 359.241 400.723C359.832 405.61 356.456 409.925 351.725 410.31C296.698 414.809 241.671 419.396 186.644 424.07C181.672 424.496 177.102 420.537 176.488 415.288C163.055 299.069 149.627 181.717 136.206 63.2304C135.598 57.8688 139.2 53.721 144.203 54.0175C199.572 57.2414 254.942 60.4314 310.311 63.5876C315.075 63.8562 319.447 68.1711 320.037 73.1429Z" fill="url(#paint10_linear_1457_20396)"/>
<path d="M320.037 73.1429C333.104 183.412 346.172 292.605 359.241 400.723C359.832 405.61 356.456 409.925 351.725 410.31C296.698 414.809 241.671 419.396 186.644 424.07C181.672 424.496 177.102 420.537 176.488 415.288C163.055 299.069 149.627 181.717 136.206 63.2304C135.598 57.8688 139.2 53.721 144.203 54.0175C199.572 57.2414 254.942 60.4314 310.311 63.5876C315.075 63.8562 319.447 68.1711 320.037 73.1429Z" fill="url(#paint11_linear_1457_20396)"/>
<g style="mix-blend-mode:multiply" opacity="0.35">
<path d="M310.317 63.5843C255.603 60.4652 200.889 57.3129 146.175 54.1273C148.016 64.8662 151.247 75.3197 155.787 85.2242C173.937 124.599 200.599 126.766 211.029 161.07C221.775 196.42 197.541 207.482 209.379 239.398C222.227 274.031 253.739 269.018 270.392 307.006C284.747 339.75 266.267 354.717 281.111 374.616C297.381 396.425 327.478 389.032 358.72 396.418C345.826 289.707 332.932 181.949 320.036 73.1445C319.447 68.1711 315.074 63.8562 310.317 63.5843Z" fill="url(#paint12_linear_1457_20396)"/>
</g>
<path d="M230.402 49.049C230.625 50.9673 229.335 52.435 227.524 52.3253C225.712 52.2155 224.057 50.5676 223.835 48.6411C223.612 46.7146 224.903 45.2436 226.716 45.3648C228.529 45.486 230.179 47.1291 230.402 49.049Z" fill="#DE8BDF"/>
<path d="M250.167 155.609C257.162 155.609 262.832 148.92 262.832 140.669C262.832 132.418 257.162 125.729 250.167 125.729C243.173 125.729 237.503 132.418 237.503 140.669C237.503 148.92 243.173 155.609 250.167 155.609Z" fill="#DD51D4"/>
<path d="M250.167 155.609C257.162 155.609 262.832 148.92 262.832 140.669C262.832 132.418 257.162 125.729 250.167 125.729C243.173 125.729 237.503 132.418 237.503 140.669C237.503 148.92 243.173 155.609 250.167 155.609Z" fill="black" fill-opacity="0.2"/>
<path d="M300.578 155.609C307.571 155.609 313.241 148.92 313.241 140.669C313.241 132.418 307.571 125.729 300.578 125.729C293.584 125.729 287.915 132.418 287.915 140.669C287.915 148.92 293.584 155.609 300.578 155.609Z" fill="#DD51D4"/>
<path d="M300.578 155.609C307.571 155.609 313.241 148.92 313.241 140.669C313.241 132.418 307.571 125.729 300.578 125.729C293.584 125.729 287.915 132.418 287.915 140.669C287.915 148.92 293.584 155.609 300.578 155.609Z" fill="black" fill-opacity="0.2"/>
<path d="M275.232 155.609C282.326 155.609 288.077 148.92 288.077 140.669C288.077 132.418 282.326 125.729 275.232 125.729C268.138 125.729 262.388 132.418 262.388 140.669C262.388 148.92 268.138 155.609 275.232 155.609Z" fill="#D8DEE8"/>
<path d="M350.988 155.609C357.982 155.609 363.652 148.92 363.652 140.669C363.652 132.418 357.982 125.729 350.988 125.729C343.993 125.729 338.323 132.418 338.323 140.669C338.323 148.92 343.993 155.609 350.988 155.609Z" fill="#DD51D4"/>
<path d="M350.988 155.609C357.982 155.609 363.652 148.92 363.652 140.669C363.652 132.418 357.982 125.729 350.988 125.729C343.993 125.729 338.323 132.418 338.323 140.669C338.323 148.92 343.993 155.609 350.988 155.609Z" fill="black" fill-opacity="0.2"/>
<path d="M325.644 155.609C332.737 155.609 338.488 148.92 338.488 140.669C338.488 132.418 332.737 125.729 325.644 125.729C318.55 125.729 312.799 132.418 312.799 140.669C312.799 148.92 318.55 155.609 325.644 155.609Z" fill="#D8DEE8"/>
<path d="M376.053 155.609C383.147 155.609 388.897 148.92 388.897 140.669C388.897 132.418 383.147 125.729 376.053 125.729C368.959 125.729 363.208 132.418 363.208 140.669C363.208 148.92 368.959 155.609 376.053 155.609Z" fill="#D8DEE8"/>
<path d="M224.823 155.609C231.917 155.609 237.668 148.92 237.668 140.669C237.668 132.418 231.917 125.729 224.823 125.729C217.729 125.729 211.979 132.418 211.979 140.669C211.979 148.92 217.729 155.609 224.823 155.609Z" fill="#D8DEE8"/>
<path d="M133.67 52.535L212.253 142.692H415.079L316.797 63.9529L133.67 52.535Z" fill="url(#paint13_linear_1457_20396)"/>
<path d="M133.67 52.535L212.253 142.692H415.079L316.797 63.9529L133.67 52.535Z" fill="#DD51D4"/>
<path d="M133.67 52.535L212.253 142.692H237.668L154.809 53.852L133.67 52.535Z" fill="#F4F7FA"/>
<path d="M177.506 55.2674L262.712 142.692H287.815L200.371 56.6942L177.506 55.2674Z" fill="#F4F7FA"/>
<path d="M223.407 58.1292L312.979 142.692H338.205L246.615 59.5774L223.407 58.1292Z" fill="#F4F7FA"/>
<path d="M293.567 62.5048L270.001 61.0353L363.49 142.692H388.839L293.567 62.5048Z" fill="#F4F7FA"/>
<path d="M388.863 142.692C389.702 149.985 394.987 155.611 401.397 155.611C407.807 155.611 413.093 149.985 413.932 142.692H388.863Z" fill="#DD51D4"/>
<path d="M388.863 142.692C389.702 149.985 394.987 155.611 401.397 155.611C407.807 155.611 413.093 149.985 413.932 142.692H388.863Z" fill="black" fill-opacity="0.2"/>
<path opacity="0.63" d="M292.463 199.013C281.487 173.733 253.665 161.455 230.307 171.591C206.948 181.726 196.905 210.436 207.874 235.718C218.843 260.999 246.672 273.274 270.03 263.138C293.389 253.003 303.432 224.287 292.463 199.013ZM258.019 235.039L258.955 242.159L252.112 243.058L251.247 236.425C246.542 236.831 241.839 236.171 238.984 234.984L240.005 226.541C243.148 227.759 247.46 228.687 251.999 228.089C255.978 227.566 258.499 225.672 258.131 222.879C257.783 220.226 255.328 218.845 249.94 217.778C242.139 216.247 236.584 213.426 235.688 206.654C234.882 200.51 238.578 195.124 245.854 192.677L244.983 186.044L251.825 185.146L252.631 191.289C257.338 190.883 260.608 191.453 263.058 192.262L262.075 200.417C260.159 199.888 256.737 198.704 251.709 199.365C247.171 199.96 245.963 202.109 246.22 204.064C246.523 206.367 249.159 207.504 255.393 208.967C264.087 210.808 267.942 214.209 268.767 220.488C269.565 226.703 265.864 232.585 258.019 235.039Z" fill="#F4F7FA"/>
<g opacity="0.63">
<path opacity="0.63" d="M317.525 336.282L210.608 339.52C208.751 339.577 206.937 338.951 205.509 337.762C204.082 336.572 203.14 334.9 202.861 333.063L198.527 304.559C198.364 303.491 198.432 302.401 198.724 301.361C199.016 300.32 199.526 299.355 200.221 298.527C200.916 297.7 201.779 297.03 202.753 296.562C203.726 296.094 204.789 295.84 205.869 295.815L312.901 293.336C314.75 293.292 316.552 293.923 317.97 295.112C319.387 296.301 320.322 297.966 320.6 299.795L324.818 327.539C324.98 328.603 324.914 329.689 324.624 330.726C324.335 331.762 323.829 332.726 323.139 333.552C322.45 334.378 321.593 335.049 320.625 335.52C319.657 335.99 318.601 336.25 317.525 336.282Z" fill="#F4F7FA"/>
<path opacity="0.63" d="M321.117 359.714L214.262 363.365C212.4 363.429 210.579 362.806 209.146 361.616C207.713 360.426 206.766 358.751 206.486 356.91L206.445 356.641C206.283 355.578 206.349 354.493 206.637 353.458C206.926 352.423 207.43 351.46 208.118 350.634C208.806 349.808 209.66 349.137 210.626 348.665C211.592 348.194 212.647 347.932 213.721 347.898L320.615 344.512C322.474 344.453 324.291 345.077 325.72 346.267C327.15 347.457 328.094 349.129 328.374 350.968C328.535 352.029 328.471 353.113 328.184 354.147C327.897 355.182 327.394 356.144 326.708 356.97C326.023 357.796 325.17 358.468 324.206 358.941C323.243 359.414 322.19 359.677 321.117 359.714Z" fill="#F4F7FA"/>
</g>
<defs>
<linearGradient id="paint0_linear_1457_20396" x1="454.252" y1="43.5462" x2="-99.7043" y2="99.7514" gradientUnits="userSpaceOnUse">
<stop stop-color="#7C4EAB"/>
<stop offset="1" stop-color="#DD51D4"/>
</linearGradient>
<linearGradient id="paint1_linear_1457_20396" x1="102972" y1="135379" x2="105430" y2="172641" gradientUnits="userSpaceOnUse">
<stop stop-color="#E38DDD"/>
<stop offset="1" stop-color="#9571F6"/>
</linearGradient>
<linearGradient id="paint2_linear_1457_20396" x1="-13.5879" y1="256.748" x2="41.1344" y2="348.515" gradientUnits="userSpaceOnUse">
<stop stop-color="#FF9085"/>
<stop offset="1" stop-color="#FB6FBB"/>
</linearGradient>
<linearGradient id="paint3_linear_1457_20396" x1="24160.8" y1="380112" x2="80098.9" y2="407058" gradientUnits="userSpaceOnUse">
<stop stop-color="#FF9085"/>
<stop offset="1" stop-color="#FB6FBB"/>
</linearGradient>
<linearGradient id="paint4_linear_1457_20396" x1="120263" y1="354128" x2="301982" y2="513787" gradientUnits="userSpaceOnUse">
<stop stop-color="#FF9085"/>
<stop offset="1" stop-color="#FB6FBB"/>
</linearGradient>
<linearGradient id="paint5_linear_1457_20396" x1="103738" y1="121243" x2="111476" y2="173213" gradientUnits="userSpaceOnUse">
<stop stop-color="#E38DDD"/>
<stop offset="1" stop-color="#9571F6"/>
</linearGradient>
<linearGradient id="paint6_linear_1457_20396" x1="185970" y1="423694" x2="362553" y2="560146" gradientUnits="userSpaceOnUse">
<stop stop-color="#FF9085"/>
<stop offset="1" stop-color="#FB6FBB"/>
</linearGradient>
<linearGradient id="paint7_linear_1457_20396" x1="11984.9" y1="25013.6" x2="12178.7" y2="25085.6" gradientUnits="userSpaceOnUse">
<stop stop-color="#E38DDD"/>
<stop offset="1" stop-color="#9571F6"/>
</linearGradient>
<linearGradient id="paint8_linear_1457_20396" x1="18404.5" y1="25025.5" x2="18598.9" y2="25097.6" gradientUnits="userSpaceOnUse">
<stop stop-color="#E38DDD"/>
<stop offset="1" stop-color="#9571F6"/>
</linearGradient>
<linearGradient id="paint9_linear_1457_20396" x1="156.345" y1="231.316" x2="505.686" y2="176.039" gradientUnits="userSpaceOnUse">
<stop stop-color="#444B8C"/>
<stop offset="1" stop-color="#26264F"/>
</linearGradient>
<linearGradient id="paint10_linear_1457_20396" x1="313.394" y1="95.7018" x2="-30.638" y2="809.289" gradientUnits="userSpaceOnUse">
<stop stop-color="#FFC444"/>
<stop offset="1" stop-color="#F36F56"/>
</linearGradient>
<linearGradient id="paint11_linear_1457_20396" x1="359.308" y1="89.3165" x2="85.3531" y2="105.797" gradientUnits="userSpaceOnUse">
<stop stop-color="#7C4EAB"/>
<stop offset="1" stop-color="#DD51D4"/>
</linearGradient>
<linearGradient id="paint12_linear_1457_20396" x1="358.719" y1="86.7879" x2="97.8639" y2="102.948" gradientUnits="userSpaceOnUse">
<stop stop-color="#7C4EAB"/>
<stop offset="1" stop-color="#DD51D4"/>
</linearGradient>
<linearGradient id="paint13_linear_1457_20396" x1="246938" y1="61480.2" x2="730357" y2="61480.2" gradientUnits="userSpaceOnUse">
<stop stop-color="#FF9085"/>
<stop offset="1" stop-color="#FB6FBB"/>
</linearGradient>
</defs>
</svg>
