<svg width="474" height="474" viewBox="0 0 474 474" fill="none" xmlns="http://www.w3.org/2000/svg">
<path opacity="0.5" d="M360.766 28.4891C376.589 51.3746 358.037 88.476 381.51 105.688C404.362 122.441 432.433 94.9765 453.968 109.401C485.914 130.795 480.081 228.689 433.373 289.512C419.327 307.8 407.59 314.921 402.391 335.608C391.231 380.027 430.458 406.451 422.993 428.42C406.192 477.888 147.681 519.396 43.9573 370.731C-4.48944 301.298 -11.7353 201.036 31.5471 124.888C109.758 -12.7123 325.268 -22.8593 360.766 28.4891Z" fill="url(#paint0_linear_1457_20327)" fill-opacity="0.5"/>
<path d="M9.15527e-05 416.014L462.743 412.571V422.758C462.743 424.095 462.264 425.388 461.393 426.404C460.523 427.419 459.317 428.089 457.995 428.293L327.144 448.352C325.589 448.591 324.011 448.654 322.442 448.541L5.0242 425.672C3.65805 425.574 2.37976 424.962 1.44669 423.959C0.51358 422.957 -0.0050354 421.638 -0.00479126 420.269L9.15527e-05 416.014Z" fill="url(#paint1_linear_1457_20327)"/>
<path d="M167.927 399.502L457.955 418.137C463.145 418.464 467.365 414.928 467.365 410.221V221.72C467.365 217.015 463.145 213.201 457.955 213.201H167.927C166.913 213.198 165.909 213.396 164.972 213.781C164.034 214.167 163.182 214.734 162.464 215.449C161.746 216.164 161.176 217.014 160.786 217.949C160.396 218.885 160.195 219.888 160.193 220.901V391.299C160.193 395.557 163.651 399.228 167.927 399.502Z" fill="url(#paint2_linear_1457_20327)"/>
<path d="M163.303 399.502L453.331 418.137C458.521 418.464 462.741 414.928 462.741 410.221V221.72C462.741 217.015 458.521 213.201 453.331 213.201H163.303C162.289 213.198 161.285 213.396 160.348 213.781C159.41 214.167 158.558 214.734 157.84 215.449C157.122 216.164 156.552 217.014 156.162 217.949C155.772 218.885 155.571 219.888 155.569 220.901V391.299C155.569 395.557 159.027 399.228 163.303 399.502Z" fill="url(#paint3_linear_1457_20327)"/>
<path d="M172.338 387.489L442.465 403.675C446.688 403.928 450.12 401.02 450.12 397.18V232.139C450.12 228.299 446.695 225.172 442.465 225.156L172.338 224.14C171.504 224.133 170.677 224.291 169.904 224.605C169.131 224.919 168.428 225.382 167.835 225.969C167.243 226.555 166.771 227.253 166.449 228.022C166.127 228.791 165.96 229.616 165.958 230.45V380.767C165.958 384.27 168.811 387.277 172.338 387.489Z" fill="url(#paint4_linear_1457_20327)"/>
<path d="M298.074 218.355C298.074 220.107 299.567 221.532 301.41 221.537C303.253 221.542 304.754 220.123 304.754 218.367C304.754 216.61 303.256 215.188 301.41 215.187C299.563 215.185 298.074 216.604 298.074 218.355Z" fill="white"/>
<g style="mix-blend-mode:soft-light" opacity="0.48">
<path d="M233.181 347.803C255.54 336.865 273.121 350.724 290.087 337.051C300.373 328.761 295.323 322.579 307.979 310.191C321.998 296.469 331.125 301.081 345.213 288.733C363.028 273.117 354.118 260.969 369.463 249.756C388.078 236.156 408.152 248.745 425.873 235.701C433.515 230.075 437.709 221.896 439.901 213.196H457.236C460.275 213.196 462.743 215.435 462.743 218.196V413.601C462.743 416.362 460.275 418.441 457.236 418.245L161.649 399.164C160.947 399.113 160.265 398.909 159.649 398.567C159.034 398.226 158.501 397.754 158.087 397.185C179.724 396.469 193.017 389.874 201.516 383.055C218.138 369.725 215.255 356.572 233.181 347.803Z" fill="white"/>
</g>
<path d="M151.743 398.657L462.743 418.271L327.141 439.059C325.587 439.296 324.01 439.358 322.442 439.245L-0.00479126 416.013L146.79 398.789C148.434 398.597 150.091 398.553 151.743 398.657Z" fill="url(#paint5_linear_1457_20327)"/>
<path style="mix-blend-mode:multiply" opacity="0.3" d="M417.362 418.765L158.446 402.193L78.3134 411.518L335 429.234L417.362 418.765Z" fill="url(#paint6_linear_1457_20327)"/>
<path d="M31.0332 142.414C22.5509 143.129 15.0376 136.259 14.2644 127.071C13.4912 117.883 19.742 109.856 28.2292 109.142C28.6696 109.104 29.1051 109.1 29.5341 109.103C29.93 104.418 30.6687 99.7686 31.7444 95.1918C31.3415 95.0287 30.9386 94.8558 30.5422 94.652C22.8054 90.676 19.4304 80.7149 23.0028 72.4009C26.5751 64.0869 35.7457 60.5676 43.4825 64.5435C43.8871 64.7506 44.272 64.9839 44.6521 65.2236C47.1613 61.4327 49.959 57.8408 53.0202 54.4797C52.7396 54.1143 52.4623 53.7409 52.2046 53.3381C47.2898 45.7384 48.952 35.3516 55.9139 30.1395C62.8759 24.9273 72.5065 26.8615 77.4197 34.4595C77.6709 34.8493 77.8944 35.2505 78.1113 35.6533C82.0671 33.7463 86.1765 32.1757 90.3959 30.9581C90.3209 30.495 90.2508 30.0286 90.2116 29.5524C89.4368 20.3659 87.7648 9.99215 96.2601 9.40994C115.923 8.07103 120.172 17.7843 120.953 26.9708C120.992 27.447 121.002 27.9183 121.006 28.3863C125.369 28.8824 129.683 29.7443 133.902 30.963C134.049 30.5292 134.202 30.0971 134.391 29.6698C137.965 21.3525 137.319 15.8077 145.441 18.9259C163.153 25.7183 165.983 35.7512 162.405 44.0652C162.219 44.5006 162.007 44.9132 161.792 45.3209C165.373 48.1226 168.732 51.196 171.84 54.5139C172.175 54.2155 172.516 53.9203 172.879 53.6479C179.841 48.4293 189.47 50.37 194.385 57.9696C199.3 65.5693 197.638 75.9561 190.674 81.1683C190.317 81.4357 189.95 81.6722 189.58 81.9005C191.406 86.2335 192.912 90.6943 194.087 95.2472C194.514 95.1722 194.943 95.1037 195.392 95.0662C203.874 94.3519 211.377 101.221 212.16 110.409C212.943 119.597 206.681 127.624 198.194 128.338C197.755 128.376 197.32 128.381 196.889 128.378C196.493 133.062 195.754 137.712 194.679 142.289C195.082 142.452 195.483 142.625 195.879 142.828C203.618 146.804 206.993 156.766 203.419 165.081C199.845 173.397 190.677 176.913 182.941 172.937C182.536 172.73 182.15 172.497 181.769 172.257C179.262 176.049 176.464 179.641 173.401 183.001C173.684 183.368 173.959 183.74 174.217 184.142C179.13 191.742 177.47 202.129 170.506 207.343C163.542 212.556 148.47 210.17 143.557 202.571C143.304 202.181 148.526 202.23 148.309 201.827C144.353 203.734 140.245 205.305 136.026 206.522C136.101 206.985 136.169 207.452 136.21 207.928C136.983 217.115 130.731 225.143 122.244 225.857C113.756 226.572 106.248 219.703 105.475 210.516C105.434 210.04 105.424 209.569 105.421 209.101C101.058 208.604 96.7437 207.742 92.5247 206.524C92.3779 206.958 92.2262 207.39 92.0353 207.817C88.463 216.134 79.294 219.649 71.5572 215.673C63.8204 211.697 60.4438 201.736 64.0177 193.422C64.2037 192.988 64.4141 192.574 64.6311 192.166C61.05 189.365 57.6906 186.291 54.5829 182.973C54.2566 183.271 53.9075 183.567 53.5438 183.839C46.5802 189.058 36.9512 187.117 32.038 179.517C27.1248 171.918 28.7854 161.531 35.749 156.319C36.1046 156.051 36.4732 155.816 36.8419 155.586C35.0159 151.254 33.5101 146.793 32.3365 142.24C31.9026 142.308 31.472 142.377 31.0332 142.414ZM118.303 179.142C149.118 176.548 171.821 147.401 169.01 114.043C166.2 80.6839 138.931 55.7436 108.119 58.3382C77.3072 60.9329 54.5975 90.084 57.4114 123.439C60.2252 156.795 87.481 181.737 118.296 179.142H118.303Z" fill="#BFC6D1"/>
<path d="M30.5468 94.6503C22.81 90.6744 19.4351 80.7132 23.0074 72.3976C26.5798 64.082 35.7503 60.5659 43.4871 64.5419C43.8917 64.749 44.2767 64.9822 44.6567 65.2219C47.1655 61.4308 49.9632 57.8388 53.0248 54.478C52.7443 54.1127 52.467 53.7392 52.2092 53.3364C47.2944 45.7367 43.5198 30.6679 50.9809 26.1912C65.1414 17.7109 72.5128 26.8599 77.4243 34.4579C77.6756 34.8477 77.899 35.2489 78.1176 35.6517C82.0727 33.7444 86.1816 32.1738 90.4006 30.9565C90.3255 30.4934 90.2554 30.0269 90.2163 29.5507C89.7938 24.5506 91.4658 19.9044 94.4345 16.584C96.3267 30.9505 98.0982 45.3312 99.749 59.726C73.3023 66.3815 54.8599 93.1712 57.4095 123.431C59.5692 149.071 76.1798 169.721 97.741 176.733C97.6921 179.537 97.6186 182.347 97.6447 185.153C97.7149 192.769 98.2091 200.4 98.7116 208.026C96.6193 207.604 94.5531 207.098 92.513 206.509C92.3662 206.943 92.2145 207.375 92.0236 207.802C88.4513 216.12 80.4666 221.175 66.231 214.489C58.3572 210.793 60.4321 201.718 64.0061 193.404C64.192 192.97 64.4025 192.556 64.6194 192.148C61.0384 189.347 57.679 186.273 54.5712 182.955C54.245 183.253 53.8959 183.549 53.5321 183.821C46.5685 189.04 30.9481 186.104 26.0333 178.508C21.1184 170.911 28.7737 161.513 35.7373 156.301C36.0929 156.033 36.4616 155.797 36.8302 155.567C35.0042 151.235 33.4984 146.774 32.3248 142.222C31.8975 142.297 31.4668 142.365 31.028 142.403C22.5458 143.117 15.0324 136.248 14.2592 127.06C13.4861 117.872 19.7368 109.845 28.2256 109.13C28.6644 109.093 29.1 109.088 29.5306 109.091C29.9265 104.407 30.6652 99.7571 31.7408 95.1803C31.3461 95.027 30.9448 94.8558 30.5468 94.6503Z" fill="#BFC6D1"/>
<path d="M23.1151 140.201C14.6328 140.915 7.12111 134.048 6.3463 124.86C5.57147 115.672 11.8255 107.643 20.3127 106.921C20.7515 106.883 21.187 106.88 21.6176 106.883C22.0134 102.198 22.7522 97.5479 23.8279 92.9706C23.425 92.8075 23.0221 92.6347 22.6257 92.4308C14.8889 88.4565 11.514 78.4937 15.0879 70.1797C18.6619 61.8657 27.8293 58.348 35.5661 62.3223C35.9706 62.5311 36.3556 62.7643 36.7356 63.0024C39.2453 59.2114 42.0435 55.6195 45.1053 52.2585C44.8231 51.8932 44.5458 51.5213 44.2897 51.1169C39.3765 43.5172 41.0371 33.1304 48.0007 27.9183C54.9643 22.7061 64.5917 24.6403 69.5049 32.24C69.7577 32.6298 69.9795 33.0293 70.1981 33.4321C74.1532 31.5248 78.2621 29.9542 82.4811 28.737C82.4061 28.2738 82.3376 27.809 82.2968 27.3328C81.522 18.1447 87.776 10.1161 96.2631 9.4018C104.75 8.68749 112.257 15.5566 113.032 24.7447C113.071 25.2209 113.082 25.6906 113.086 26.1602C117.449 26.6558 121.762 27.5172 125.98 28.7353C126.129 28.3015 126.281 27.8694 126.47 27.4437C130.044 19.1265 139.213 15.612 146.95 19.5864C154.686 23.5607 158.063 33.5234 154.489 41.8374C154.303 42.2729 154.093 42.6855 153.876 43.0932C157.457 45.895 160.816 48.969 163.924 52.2878C164.258 51.9878 164.599 51.6926 164.963 51.4202C171.927 46.2016 181.554 48.1422 186.469 55.7419C191.384 63.3416 189.721 73.7284 182.758 78.9405C182.402 79.208 182.033 79.4445 181.663 79.6744C183.49 84.0065 184.997 88.4669 186.17 93.0195C186.598 92.9445 187.027 92.876 187.475 92.8401C195.957 92.1242 203.471 98.9933 204.244 108.181C205.017 117.369 198.765 125.396 190.278 126.121C189.839 126.156 189.403 126.161 188.973 126.158C188.577 130.843 187.838 135.493 186.762 140.071C187.165 140.234 187.568 140.407 187.965 140.609C195.701 144.585 199.076 154.548 195.504 162.862C191.932 171.176 182.761 174.693 175.024 170.719C174.62 170.51 174.235 170.277 173.855 170.037C171.346 173.829 168.548 177.421 165.485 180.781C165.767 181.148 166.044 181.52 166.301 181.923C171.214 189.522 169.553 199.908 162.59 205.121C155.626 210.335 145.999 208.399 141.085 200.8C140.833 200.41 140.611 200.009 140.392 199.606C136.437 201.513 132.328 203.084 128.109 204.303C128.184 204.766 128.253 205.231 128.293 205.707C129.068 214.895 122.814 222.922 114.327 223.636C105.84 224.351 98.3413 217.483 97.5583 208.295C97.5176 207.819 97.5078 207.347 97.5061 206.879C93.1428 206.384 88.8288 205.523 84.6098 204.304C84.463 204.738 84.3097 205.17 84.1205 205.596C80.5465 213.913 71.3775 217.428 63.6407 213.453C55.9039 209.479 52.5273 199.515 56.1013 191.201C56.2872 190.767 56.4977 190.353 56.7146 189.945C53.1332 187.144 49.7737 184.071 46.6664 180.752C46.3401 181.052 45.9911 181.345 45.6273 181.618C38.6637 186.836 29.0363 184.897 24.1215 177.298C19.2067 169.698 20.8689 159.311 27.8325 154.098C28.1897 153.832 28.5567 153.595 28.927 153.365C27.0998 149.033 25.5934 144.572 24.42 140.019C23.9845 140.095 23.5555 140.164 23.1151 140.201ZM110.384 176.929C141.2 174.335 163.903 145.188 161.092 111.83C158.282 78.4708 131.022 53.5305 100.207 56.1268C69.3923 58.7231 46.6827 87.8661 49.4933 121.233C52.3038 154.6 79.5547 179.524 110.384 176.929Z" fill="#D8DEE8"/>
<path d="M174.184 105.657V184.263C174.184 186.872 172.399 188.945 170.203 188.891L40.3074 185.711C38.3091 185.662 36.691 183.609 36.691 181.125V106.291L174.184 105.657Z" fill="white"/>
<path d="M40.3074 96.7606L170.203 95.7104C172.399 95.6924 174.184 97.793 174.184 100.404V108.459L36.691 108.958V101.293C36.691 98.8041 38.3091 96.7704 40.3074 96.7606Z" fill="url(#paint7_linear_1457_20327)"/>
<path d="M141.738 147.163L134.478 116.73C123.532 120.97 115.652 133.246 115.593 147.76L141.738 147.163Z" fill="url(#paint8_linear_1457_20327)"/>
<path d="M122.324 149.737C122.728 156.658 125.49 162.834 129.654 167.098L141.037 149.295L122.324 149.737Z" fill="#F4F7FA"/>
<path d="M143.365 146.134C147.769 141.116 153.105 135.044 157.351 130.173C153.584 125.881 148.503 123.245 142.929 123.237C141.274 123.234 139.626 123.466 138.035 123.925L143.365 146.134Z" fill="#F4F7FA"/>
<path d="M144.284 148.05L160.323 162.33C162.574 158.369 163.891 153.574 163.891 148.396C163.891 142.011 161.891 136.165 158.601 131.726C157.424 133.073 156.119 134.565 154.686 136.204C150.348 141.152 146.001 146.097 144.284 148.05Z" fill="#F4F7FA"/>
<path d="M143.825 150.291L144.133 173.105C150.226 172.806 155.641 169.354 159.258 164.047L143.825 150.291Z" fill="#F4F7FA"/>
<path d="M142.05 151.24L131.057 168.421C134.262 171.177 138.143 172.886 142.347 173.105L142.05 151.24Z" fill="#F4F7FA"/>
<path d="M46.0859 130.631L111.913 130.915V123.242L46.0859 123.139V130.631Z" fill="#D8DEE8"/>
<path d="M46.0859 144.19L111.913 144.8V137.127L46.0859 136.698V144.19Z" fill="#D8DEE8"/>
<path d="M46.0859 157.749L111.913 158.683V151.01L46.0859 150.257V157.749Z" fill="#D8DEE8"/>
<path d="M46.0859 171.308L111.913 172.568V164.895L46.0859 163.814V171.308Z" fill="#D8DEE8"/>
<path d="M41.9997 103.035C41.9997 104.191 42.7892 105.124 43.7614 105.119C44.7336 105.114 45.5264 104.171 45.5264 103.014C45.5264 101.856 44.7352 100.923 43.7614 100.928C42.7876 100.933 41.9997 101.878 41.9997 103.035Z" fill="white"/>
<path d="M310.779 276.138V371.419C310.779 374.583 308.571 377.014 305.851 376.851L146.016 367.264C143.57 367.117 141.594 364.574 141.594 361.582V271.464L310.779 276.138Z" fill="white"/>
<path d="M146.016 260.128L305.851 263.931C308.571 263.996 310.779 266.612 310.779 269.776V279.539L141.594 274.681V265.447C141.594 262.448 143.573 260.071 146.016 260.128Z" fill="url(#paint9_linear_1457_20327)"/>
<path d="M158.792 351.678L291.782 358.924V293.961L158.792 289.501V351.678Z" fill="#F4F7FA"/>
<path d="M158.792 351.679L291.774 358.924V317.163C287.422 345.344 282.788 351.399 279.296 351.521C274.383 351.694 271.738 340.115 264.313 339.453C256.947 338.793 254.462 349.768 248.947 349.106C238.472 347.847 235.625 306.664 227.138 306.052C220.401 305.563 215.845 331.121 209.912 329.829C205.578 328.887 204.529 314.474 201.249 314.483C198.275 314.493 198.15 326.343 194.235 327.266C188.503 328.618 182.931 304.53 175.036 304.061C170.666 303.8 165.226 310.757 158.782 334.931L158.792 351.679Z" fill="url(#paint10_linear_1457_20327)"/>
<path d="M147 267.483C147 268.884 147.979 270.046 149.179 270.077C150.38 270.108 151.363 268.999 151.363 267.597C151.363 266.194 150.385 265.032 149.179 265.001C147.974 264.97 147 266.08 147 267.483Z" fill="white"/>
<path d="M444.233 100.658V237.265C444.233 241.8 440.933 245.419 436.87 245.351L203.424 241.365C199.933 241.305 197.109 237.859 197.109 233.669V107.431L444.233 100.658Z" fill="white"/>
<path d="M203.424 91.1995L436.87 83.5607C440.933 83.427 444.233 86.9952 444.233 91.5306V105.53L197.106 111.932V98.9949C197.109 94.8037 199.938 91.3137 203.424 91.1995Z" fill="url(#paint11_linear_1457_20327)"/>
<path d="M204 101.732C204 103.738 205.455 105.32 207.251 105.273C209.047 105.226 210.514 103.551 210.514 101.542C210.514 99.5324 209.055 97.9537 207.251 98.001C205.447 98.0483 204 99.7265 204 101.732Z" fill="white"/>
<path d="M393.758 226.942L412.149 227.156V125.636L393.758 126.003V226.942Z" fill="#F4F7FA"/>
<path d="M393.758 226.942L412.149 227.156V178.956L393.758 179.018V226.942Z" fill="url(#paint12_linear_1457_20327)"/>
<path d="M368.517 226.65L386.618 226.86V126.145L368.517 126.505V226.65Z" fill="#F4F7FA"/>
<path d="M368.517 226.65L386.618 226.86V202.951L368.517 202.877V226.65Z" fill="url(#paint13_linear_1457_20327)"/>
<path d="M343.668 226.363L361.487 226.57V126.646L343.668 127.001V226.363Z" fill="#F4F7FA"/>
<path d="M343.668 226.363L361.487 226.57V214.115L343.668 213.98V226.363Z" fill="url(#paint14_linear_1457_20327)"/>
<path d="M319.205 226.081L336.75 226.283V127.14L319.205 127.489V226.081Z" fill="#F4F7FA"/>
<path d="M319.205 226.081L336.75 226.283V148.616L319.205 148.846V226.081Z" fill="url(#paint15_linear_1457_20327)"/>
<path d="M295.121 225.802L312.394 226.003V127.624L295.121 127.968V225.802Z" fill="#F4F7FA"/>
<path d="M295.121 225.802L312.394 226.003V157.692L295.121 157.871V225.802Z" fill="url(#paint16_linear_1457_20327)"/>
<path d="M271.401 225.528L288.413 225.725V128.102L271.401 128.441V225.528Z" fill="#F4F7FA"/>
<path d="M271.401 225.528L288.413 225.725V142.297L271.401 142.558V225.528Z" fill="url(#paint17_linear_1457_20327)"/>
<path d="M248.043 225.257L264.796 225.451V128.573L248.043 128.908V225.257Z" fill="#F4F7FA"/>
<path d="M248.043 225.257L264.796 225.451V165.945L248.043 166.076V225.257Z" fill="url(#paint18_linear_1457_20327)"/>
<path d="M225.036 224.991L241.537 225.182V129.036L225.036 129.366V224.991Z" fill="#F4F7FA"/>
<path d="M225.036 224.991L241.537 225.182V191.802L225.036 191.793V224.991Z" fill="url(#paint19_linear_1457_20327)"/>
<path d="M453.298 287.136V366.438C453.298 369.071 451.574 371.109 449.447 370.99L323.456 363.95C321.513 363.841 319.939 361.716 319.939 359.202V283.511L453.298 287.136Z" fill="white"/>
<path d="M323.456 273.985L449.447 276.978C451.567 277.028 453.298 279.202 453.298 281.836V289.962L319.939 286.211V278.445C319.939 275.939 321.513 273.938 323.456 273.985Z" fill="url(#paint20_linear_1457_20327)"/>
<path d="M326 280.07C326 281.238 326.763 282.203 327.704 282.229C328.645 282.255 329.412 281.327 329.412 280.158C329.412 278.989 328.647 278.023 327.704 278C326.761 277.978 326 278.91 326 280.07Z" fill="white"/>
<path d="M433.021 325.125C431.852 322.341 429.659 320.304 427.084 319.829L426.903 306.271C434.228 306.871 440.497 312.73 443.293 320.806L433.021 325.125Z" fill="url(#paint21_linear_1457_20327)"/>
<path d="M425.021 319.792C421.54 320.309 418.823 323.755 418.497 328.158L407.745 328.261C407.882 316.276 415.345 306.763 424.836 306.245L425.021 319.792Z" fill="#D8DEE8"/>
<path d="M418.587 330.723C419.22 335.267 422.373 338.841 426.179 339.014C427.273 339.063 428.36 338.824 429.332 338.321L435.062 350.145C432.421 351.835 429.319 352.663 426.186 352.514C416.578 352.033 408.732 342.519 407.841 330.824L418.587 330.723Z" fill="#D8DEE8"/>
<path d="M436.827 348.871L431.089 337.044C432.821 335.35 433.927 332.708 433.927 329.696C433.927 328.985 433.864 328.275 433.739 327.576L444.016 323.265C444.568 325.522 444.847 327.837 444.845 330.161C444.845 338.064 441.669 344.902 436.827 348.871Z" fill="#D8DEE8"/>
<path d="M393.002 323.505C391.86 320.762 389.731 318.753 387.226 318.286L387.051 304.914C394.176 305.501 400.264 311.274 402.991 319.24L393.002 323.505Z" fill="#D8DEE8"/>
<path d="M385.222 318.251C381.837 318.763 379.198 322.164 378.883 326.506L368.422 326.613C368.556 314.793 375.816 305.413 385.047 304.887L385.222 318.251Z" fill="url(#paint22_linear_1457_20327)"/>
<path d="M378.962 329.037C379.577 333.517 382.645 337.041 386.346 337.209C387.411 337.256 388.469 337.02 389.413 336.524L394.988 348.181C392.424 349.85 389.399 350.669 386.343 350.523C376.996 350.057 369.362 340.678 368.498 329.135L378.962 329.037Z" fill="#D8DEE8"/>
<path d="M396.706 346.925L391.116 335.263C392.809 333.59 393.889 330.986 393.889 328.023C393.889 327.32 393.828 326.619 393.706 325.927L403.697 321.662C404.234 323.889 404.505 326.171 404.503 328.461C404.503 336.26 401.415 343.007 396.706 346.925Z" fill="#D8DEE8"/>
<path d="M354.069 321.931C352.963 319.226 350.886 317.244 348.449 316.786L348.286 303.596C355.22 304.172 361.153 309.868 363.799 317.721L354.069 321.931Z" fill="#D8DEE8"/>
<path d="M346.499 316.752C343.206 317.259 340.636 320.615 340.33 324.906L330.149 325.017C330.278 313.357 337.345 304.092 346.329 303.576L346.499 316.752Z" fill="#D8DEE8"/>
<path d="M340.407 327.396C341.006 331.816 343.996 335.29 347.585 335.453C348.623 335.5 349.654 335.265 350.57 334.774L355.995 346.27C353.509 347.915 350.563 348.727 347.585 348.587C338.489 348.132 331.059 338.885 330.217 327.499L340.407 327.396Z" fill="#D8DEE8"/>
<path d="M357.675 345.031L352.245 333.532C353.876 331.879 354.931 329.309 354.931 326.379C354.931 325.686 354.872 324.994 354.754 324.311L364.479 320.106C365.001 322.304 365.264 324.554 365.262 326.812C365.258 334.507 362.254 341.162 357.675 345.031Z" fill="url(#paint23_linear_1457_20327)"/>
<defs>
<linearGradient id="paint0_linear_1457_20327" x1="2.96079" y1="45.2283" x2="577.636" y2="102.203" gradientUnits="userSpaceOnUse">
<stop stop-color="#7C4EAB"/>
<stop offset="1" stop-color="#DD51D4"/>
</linearGradient>
<linearGradient id="paint1_linear_1457_20327" x1="267.136" y1="433.237" x2="299.595" y2="446.873" gradientUnits="userSpaceOnUse">
<stop stop-color="#40447E"/>
<stop offset="1" stop-color="#3C3B6B"/>
</linearGradient>
<linearGradient id="paint2_linear_1457_20327" x1="-405006" y1="459278" x2="-353502" y2="491697" gradientUnits="userSpaceOnUse">
<stop stop-color="#40447E"/>
<stop offset="1" stop-color="#3C3B6B"/>
</linearGradient>
<linearGradient id="paint3_linear_1457_20327" x1="-135273" y1="467785" x2="-713712" y2="467785" gradientUnits="userSpaceOnUse">
<stop stop-color="#40447E"/>
<stop offset="1" stop-color="#3C3B6B"/>
</linearGradient>
<linearGradient id="paint4_linear_1457_20327" x1="165.958" y1="241.272" x2="507.533" y2="295.204" gradientUnits="userSpaceOnUse">
<stop stop-color="#7C4EAB"/>
<stop offset="1" stop-color="#DD51D4"/>
</linearGradient>
<linearGradient id="paint5_linear_1457_20327" x1="-204021" y1="119016" x2="-1.51675e+06" y2="119016" gradientUnits="userSpaceOnUse">
<stop stop-color="#40447E"/>
<stop offset="1" stop-color="#3C3B6B"/>
</linearGradient>
<linearGradient id="paint6_linear_1457_20327" x1="-117304" y1="69332" x2="-822024" y2="69332" gradientUnits="userSpaceOnUse">
<stop stop-color="#40447E"/>
<stop offset="1" stop-color="#3C3B6B"/>
</linearGradient>
<linearGradient id="paint7_linear_1457_20327" x1="-371243" y1="11620.4" x2="-370593" y2="22644.3" gradientUnits="userSpaceOnUse">
<stop stop-color="#FFC444"/>
<stop offset="1" stop-color="#F36F56"/>
</linearGradient>
<linearGradient id="paint8_linear_1457_20327" x1="-203724" y1="33443.1" x2="-197431" y2="52191.4" gradientUnits="userSpaceOnUse">
<stop stop-color="#FFC444"/>
<stop offset="1" stop-color="#F36F56"/>
</linearGradient>
<linearGradient id="paint9_linear_1457_20327" x1="211.775" y1="247.742" x2="289.644" y2="375.07" gradientUnits="userSpaceOnUse">
<stop stop-color="#AA80F9"/>
<stop offset="1" stop-color="#6165D7"/>
</linearGradient>
<linearGradient id="paint10_linear_1457_20327" x1="-246141" y1="122151" x2="-248293" y2="151653" gradientUnits="userSpaceOnUse">
<stop stop-color="#AA80F9"/>
<stop offset="1" stop-color="#6165D7"/>
</linearGradient>
<linearGradient id="paint11_linear_1457_20327" x1="301.304" y1="68.8294" x2="405.965" y2="239.964" gradientUnits="userSpaceOnUse">
<stop stop-color="#FF9085"/>
<stop offset="1" stop-color="#FB6FBB"/>
</linearGradient>
<linearGradient id="paint12_linear_1457_20327" x1="-8822.39" y1="50149.6" x2="4104.54" y2="65542.8" gradientUnits="userSpaceOnUse">
<stop stop-color="#FF9085"/>
<stop offset="1" stop-color="#FB6FBB"/>
</linearGradient>
<linearGradient id="paint13_linear_1457_20327" x1="-10978.9" y1="29044.6" x2="-8389.02" y2="35144.6" gradientUnits="userSpaceOnUse">
<stop stop-color="#FF9085"/>
<stop offset="1" stop-color="#FB6FBB"/>
</linearGradient>
<linearGradient id="paint14_linear_1457_20327" x1="-13304.6" y1="16330" x2="-12804.5" y2="18538.9" gradientUnits="userSpaceOnUse">
<stop stop-color="#FF9085"/>
<stop offset="1" stop-color="#FB6FBB"/>
</linearGradient>
<linearGradient id="paint15_linear_1457_20327" x1="-17164.4" y1="64573.9" x2="13457.4" y2="86161.4" gradientUnits="userSpaceOnUse">
<stop stop-color="#FF9085"/>
<stop offset="1" stop-color="#FB6FBB"/>
</linearGradient>
<linearGradient id="paint16_linear_1457_20327" x1="-19282" y1="61130.5" x2="5384.3" y2="80594.5" gradientUnits="userSpaceOnUse">
<stop stop-color="#FF9085"/>
<stop offset="1" stop-color="#FB6FBB"/>
</linearGradient>
<linearGradient id="paint17_linear_1457_20327" x1="-21810.4" y1="65806.4" x2="11943.1" y2="87285.6" gradientUnits="userSpaceOnUse">
<stop stop-color="#FF9085"/>
<stop offset="1" stop-color="#FB6FBB"/>
</linearGradient>
<linearGradient id="paint18_linear_1457_20327" x1="-23416.8" y1="56725.1" x2="-4161.39" y2="73643" gradientUnits="userSpaceOnUse">
<stop stop-color="#FF9085"/>
<stop offset="1" stop-color="#FB6FBB"/>
</linearGradient>
<linearGradient id="paint19_linear_1457_20327" x1="-24895.6" y1="37892.7" x2="-18953.6" y2="47057.4" gradientUnits="userSpaceOnUse">
<stop stop-color="#FF9085"/>
<stop offset="1" stop-color="#FB6FBB"/>
</linearGradient>
<linearGradient id="paint20_linear_1457_20327" x1="375.155" y1="264.476" x2="436.949" y2="365.516" gradientUnits="userSpaceOnUse">
<stop stop-color="#E38DDD"/>
<stop offset="1" stop-color="#9571F6"/>
</linearGradient>
<linearGradient id="paint21_linear_1457_20327" x1="-10543.5" y1="41998.6" x2="-7435.01" y2="46287.8" gradientUnits="userSpaceOnUse">
<stop stop-color="#FF9085"/>
<stop offset="1" stop-color="#FB6FBB"/>
</linearGradient>
<linearGradient id="paint22_linear_1457_20327" x1="-15801" y1="48598.6" x2="-16598.6" y2="60406" gradientUnits="userSpaceOnUse">
<stop stop-color="#FFC444"/>
<stop offset="1" stop-color="#F36F56"/>
</linearGradient>
<linearGradient id="paint23_linear_1457_20327" x1="-13765.6" y1="57554.1" x2="-11814.2" y2="69120.3" gradientUnits="userSpaceOnUse">
<stop stop-color="#AA80F9"/>
<stop offset="1" stop-color="#6165D7"/>
</linearGradient>
</defs>
</svg>
