<svg width="43" height="48" viewBox="0 0 43 48" fill="none" xmlns="http://www.w3.org/2000/svg">
<path d="M10.3441 47.1533C9.47401 46.7666 9.08732 46.1866 9.18399 45.2199C9.18399 44.7365 9.18399 44.1564 9.18399 43.6731C8.99065 43.6731 8.7973 43.6731 8.60395 43.6731C6.28378 43.6731 4.06029 43.6731 1.74012 43.6731C0.580042 43.6731 0 43.093 0 41.933C0 41.4496 0 40.9662 0 40.4828C0 39.9995 0.290021 39.7095 0.676715 39.7095C1.06341 39.7095 1.35343 39.9995 1.35343 40.4828C1.35343 40.9662 1.35343 41.4496 1.35343 41.933C1.35343 42.1263 1.4501 42.223 1.64345 42.223C4.15696 42.223 6.5738 42.223 9.18399 42.223C9.18399 40.6762 9.18399 39.2261 9.18399 37.776C7.34719 36.6159 6.76715 35.8425 6.47713 33.7157C5.31705 33.7157 4.15696 33.619 3.09356 33.7157C2.12682 33.8124 1.4501 34.8758 1.35343 35.9392C1.35343 36.4226 1.35343 36.8093 1.35343 37.2926C1.35343 37.776 1.06341 38.066 0.676715 38.066C0.290021 38.066 0 37.776 0 37.2926C0 36.8093 0 36.2292 0 35.7458C0.0966736 34.5858 0.676715 33.619 1.64345 32.9423C1.74012 32.8456 1.8368 32.8456 1.93347 32.749C1.54678 31.4922 1.06341 30.3321 0.773389 29.172C-0.773389 22.9849 0.193347 17.2812 3.77027 11.9641C3.96362 11.6741 4.06029 11.4808 3.86694 11.0941C3.38358 10.1273 3.57692 8.96726 4.35031 8.19387C5.1237 7.42048 6.18711 7.13046 7.25052 7.61383C7.44387 7.80717 7.63722 7.7105 7.83056 7.51715C8.99065 6.74376 10.0541 5.97037 11.2141 5.19699C11.6975 4.90696 12.0842 5.00364 12.2775 5.39033C12.4709 5.77703 12.2775 6.06705 11.8909 6.35707C10.8274 7.13046 9.76403 7.80717 8.70062 8.58056C8.50728 8.67724 8.50728 8.87058 8.60395 9.06393C8.99064 10.0307 8.7973 10.9974 8.12058 11.6741C7.44387 12.4475 6.5738 12.7375 5.5104 12.4475C5.22037 12.3508 5.1237 12.4475 4.93035 12.6409C2.99688 15.4444 1.8368 18.5379 1.54678 22.0182C1.16008 25.4984 1.74012 28.7853 3.09356 31.9756C3.19023 32.2656 3.38358 32.3623 3.77027 32.3623C5.1237 32.3623 6.47713 32.3623 7.73389 32.3623C7.83056 31.9756 7.73389 31.7822 7.54054 31.5889C6.38046 30.6221 5.60707 29.4621 5.41372 28.012C5.41372 27.7219 5.31705 27.6253 5.02703 27.5286C3.2869 27.0452 2.70686 24.9184 3.96362 23.565C4.06029 23.4683 4.15697 23.1783 4.15697 22.9849C4.15697 21.5348 4.15697 20.1814 4.15697 18.7313C4.15697 16.6045 5.5104 15.0577 7.44387 14.671C7.73389 14.5743 8.12058 14.5743 8.4106 14.5743C9.86071 14.5743 11.3108 14.5743 12.7609 14.5743C13.7277 14.5743 14.6944 14.8643 15.4678 15.5411C15.5645 15.6377 15.7578 15.6377 15.8545 15.6377C16.7245 15.251 17.5946 15.1544 18.5613 15.1544C19.0447 15.1544 19.4314 15.1544 19.9148 15.1544C20.3015 15.1544 20.5915 15.4444 20.6882 15.8311C20.6882 16.2178 20.3981 16.5078 19.9148 16.5078C19.238 16.5078 18.5613 16.5078 17.8846 16.5078C16.1445 16.5078 14.6944 17.8612 14.5977 19.6014C14.501 21.0515 14.5977 22.5016 14.5977 23.9517C14.5977 24.0483 14.5977 24.0483 14.5977 24.145C14.9844 24.2417 14.9844 24.0483 15.0811 23.7583C15.2744 22.6949 15.6611 21.7282 16.2412 20.8581C16.6279 20.3747 16.8212 20.2781 17.4012 20.4714C19.238 21.0515 20.9782 21.5348 22.9116 21.7282C23.395 21.7282 23.9751 21.7282 24.4584 21.6315C24.7484 21.5348 25.1351 21.3415 25.3285 21.1481C25.7152 20.7614 26.1985 20.7614 26.4886 21.2448C26.9719 22.0182 27.3586 22.8883 27.4553 23.7583C27.4553 23.9517 27.552 24.2417 27.842 24.145C27.842 24.0483 27.842 23.9517 27.842 23.855C27.842 22.8883 27.842 21.9215 27.842 20.9548C27.842 20.4714 27.7453 20.1814 27.1653 20.1814C26.7786 20.0847 26.5852 19.7947 26.5852 19.408C26.5852 18.6346 26.2952 18.0546 25.8119 17.4745C25.2318 16.7978 24.4584 16.5078 23.685 16.5078C23.395 16.5078 23.105 16.5078 22.9116 16.5078C22.525 16.5078 22.2349 16.2178 22.2349 15.8311C22.2349 15.4444 22.525 15.1544 22.9116 15.1544C23.9751 15.0577 25.0385 15.251 25.9085 15.7344C26.8753 14.7677 28.0353 14.4777 29.2921 14.5743C30.7422 14.5743 32.0956 14.5743 33.5457 14.5743C35.3825 14.5743 36.8326 15.7344 37.316 17.4745C37.316 17.5712 37.4127 17.7646 37.606 17.8612C38.1861 18.2479 38.4761 18.828 38.4761 19.5047C38.4761 20.5681 38.4761 21.7282 38.4761 22.7916C38.4761 22.9849 38.5728 23.2749 38.7661 23.3716C40.0229 24.7251 39.4428 26.7552 37.7027 27.3352C37.4127 27.4319 37.4127 27.5286 37.316 27.7219C37.026 29.172 36.3493 30.4288 35.1892 31.3955C34.9958 31.4922 34.9958 31.7822 34.8025 31.9756L34.8992 32.0722C35.5759 32.0722 36.1559 32.0722 36.8326 32.0722C37.5094 32.0722 38.2827 32.0722 38.9595 32.0722C39.3462 32.0722 39.4428 31.9756 39.6362 31.6856C40.9896 28.4953 41.473 25.2084 41.183 21.8248C40.8929 18.4413 39.7329 15.3477 37.8961 12.5442C37.7027 12.2542 37.5094 12.1575 37.2193 12.2542C36.2526 12.5442 35.3825 12.2542 34.7058 11.4808C34.0291 10.7074 33.8358 9.83732 34.2225 8.87058C34.1258 8.87058 34.0291 8.67724 33.8358 8.48389C31.0322 6.2604 27.842 4.81029 24.2651 4.23025C23.8784 4.13358 23.685 4.23025 23.4917 4.61694C22.5249 6.35707 20.0114 6.2604 19.0447 4.61694C18.8514 4.32692 18.658 4.23025 18.368 4.32692C17.2079 4.61694 16.0478 4.90696 14.8877 5.19699C14.6944 5.29366 14.3077 5.29366 14.1143 5.19699C13.921 5.10031 13.7277 4.81029 13.8243 4.61694C13.921 4.4236 14.1143 4.0369 14.3077 4.0369C15.4678 3.65021 16.5312 3.45686 17.6913 3.16684C17.7879 3.16684 17.7879 3.16684 17.8846 3.16684C18.4647 3.16684 18.7547 2.97349 18.948 2.39345C19.4314 1.23337 20.3015 0.75 21.4615 0.75C22.525 0.846674 23.395 1.33004 23.7817 2.39345C23.9751 2.78015 24.1684 2.87682 24.5551 2.97349C28.422 3.55353 31.8056 5.00364 34.8025 7.51715C35.0925 7.7105 35.2859 7.80717 35.6726 7.61383C36.6393 7.22713 37.7994 7.51715 38.4761 8.29054C39.1528 9.06393 39.3462 10.224 38.8628 11.1907C38.7661 11.3841 38.6694 11.5774 38.8628 11.8675C43.2131 18.3446 43.7931 25.2084 40.8929 32.4589C40.8929 32.5556 40.7963 32.6523 40.7963 32.749C40.9896 32.8456 41.0863 32.9423 41.2796 33.1357C42.2464 33.909 42.7297 34.8758 42.7297 36.1325C42.7297 38.066 42.7297 40.0962 42.7297 42.0296C42.7297 43.1897 42.1497 43.7698 40.9896 43.7698C38.6694 43.7698 36.4459 43.7698 34.1258 43.7698C33.9324 43.7698 33.7391 43.7698 33.5457 43.7698C33.5457 44.3498 33.5457 44.8332 33.5457 45.3165C33.6424 46.2833 33.2557 46.8633 32.3857 47.25C24.9418 47.1533 17.6913 47.1533 10.3441 47.1533ZM26.1985 36.1325C25.9085 39.2261 23.5884 40.8695 21.3649 40.8695C20.2048 40.8695 19.238 40.5795 18.368 39.8061C17.1112 38.8394 16.5312 37.5826 16.4345 36.0359C15.3711 36.0359 14.4044 36.0359 13.341 36.0359C11.6008 36.0359 10.5374 37.0993 10.5374 38.8394C10.5374 40.9662 10.5374 43.093 10.5374 45.2199C10.5374 45.6066 10.6341 45.7999 11.1175 45.7999C15.0811 45.7999 19.0447 45.7999 23.0083 45.7999C25.9085 45.7999 28.8087 45.7999 31.7089 45.7999C31.9023 45.7999 32.1923 45.8966 32.1923 45.5099C32.1923 43.1897 32.1923 40.9662 32.1923 38.6461C32.1923 37.3893 31.1289 36.2292 29.9688 36.2292C28.6154 36.0359 27.4553 36.1325 26.1985 36.1325ZM25.9085 22.8883C22.815 23.9517 20.1081 22.7916 17.3046 22.1149C17.2079 22.2115 17.1112 22.3082 17.1112 22.5016C16.6279 23.1783 16.4345 23.9517 16.4345 24.7251C16.4345 26.3685 16.3378 28.012 16.5312 29.5587C16.8212 32.0722 19.1414 33.909 21.6549 33.7157C24.1684 33.5224 26.1985 31.4922 26.1985 28.9787C26.1985 27.5286 26.1985 26.0785 26.1985 24.6284C26.1985 24.0483 26.0052 23.4683 25.9085 22.8883ZM7.05717 21.4382C6.9605 22.0182 6.76715 22.5016 6.67048 22.9849C6.5738 24.435 6.5738 25.9818 6.67048 27.4319C6.86383 30.0421 9.18399 31.7822 11.6975 31.3955C12.9543 31.2022 14.0177 30.4288 14.6944 29.3654C14.5977 29.3654 14.501 29.2687 14.501 29.2687C12.8576 28.592 12.2775 27.0452 13.1476 25.4984C13.1476 25.4018 13.2443 25.4018 13.2443 25.3051C13.2443 24.3384 13.2443 23.4683 13.2443 22.5016C11.1175 22.5016 9.18399 22.0182 7.05717 21.4382ZM41.183 42.3196C41.183 40.0962 41.183 37.9693 41.183 35.8425C41.183 34.8758 40.4096 33.909 39.4428 33.8124C38.2827 33.7157 37.2193 33.8124 36.0593 33.8124C35.7692 35.9392 35.1892 36.8093 33.3524 37.8727C33.3524 39.4194 33.3524 40.8695 33.3524 42.3196C36.0593 42.3196 38.5728 42.3196 41.183 42.3196ZM27.9387 29.2687C27.9387 29.3654 28.0353 29.4621 28.0353 29.4621C29.0021 30.9122 30.9356 31.6856 32.579 31.2989C34.4158 30.8155 35.7692 29.3654 35.8659 27.5286C35.9626 26.1752 35.9626 24.7251 35.8659 23.3716C35.8659 22.8883 35.6726 22.3082 35.6726 21.8248C33.4491 22.8883 31.4189 22.2115 29.2921 21.8248C29.2921 22.7916 29.2921 23.7583 29.2921 24.7251C29.2921 25.0151 29.3888 25.2084 29.4854 25.4018C30.1622 26.7552 29.6788 28.3987 28.2287 28.9787C28.132 29.172 28.0353 29.2687 27.9387 29.2687ZM27.0686 16.7011C27.3586 17.3779 27.6486 18.0546 27.9387 18.7313C28.0353 19.0213 28.132 19.118 28.3254 19.3113C28.6154 19.6014 28.9054 19.8914 29.1954 20.2781C29.2921 20.3747 29.4854 20.5681 29.5821 20.6648C30.2588 20.8581 30.8389 21.0515 31.5156 21.0515C32.4823 21.1481 33.3524 21.1481 34.3191 21.0515C34.6091 21.0515 34.8025 20.6648 34.9958 20.4714C35.1892 20.2781 35.3825 19.988 35.5759 19.988C35.7692 19.988 36.0593 20.1814 36.2526 20.3747C36.5426 20.7614 36.736 21.1481 36.9293 21.6315C36.9293 20.8581 36.9293 20.1814 36.9293 19.6014C36.9293 19.5047 36.736 19.3113 36.6393 19.2147C36.1559 19.118 35.9626 18.828 35.9626 18.3446C35.8659 17.0878 34.8992 16.1211 33.6424 16.1211C31.999 16.1211 30.3555 16.1211 28.7121 16.1211C28.0353 16.0244 27.4553 16.3145 27.0686 16.7011ZM5.60707 21.4382C5.80042 21.1481 5.99376 20.8581 6.09044 20.5681C6.47713 19.988 6.67048 19.8914 7.34719 20.0847C8.31393 20.3747 9.28067 20.5681 10.2474 20.8581C11.2141 21.0515 12.2775 21.2448 13.341 21.0515C13.2443 19.408 13.4376 17.8612 14.5977 16.7011C14.1143 16.3145 13.631 16.1211 13.0509 16.1211C11.4075 16.1211 9.86071 16.1211 8.21726 16.1211C6.76715 16.1211 5.70374 17.0878 5.60707 18.5379C5.5104 19.408 5.60707 20.4714 5.60707 21.4382ZM23.2983 34.7791C21.7516 35.1658 21.2682 35.2625 19.238 34.7791C19.5281 35.9392 18.8514 36.2292 17.8846 36.0359C17.9813 37.9693 19.5281 39.5161 21.4615 39.5161C23.395 39.4194 24.9418 37.8727 24.8451 36.1325C24.4584 36.0359 23.9751 36.0359 23.7817 35.8425C23.395 35.6492 23.395 35.1658 23.2983 34.7791ZM9.66736 36.5192C10.1507 36.0359 10.6341 35.6492 11.1175 35.2625C11.8909 34.7791 12.6642 34.6824 13.631 34.6824C13.8243 34.6824 14.0177 34.5858 14.0177 34.4891C14.1143 34.2957 14.1143 34.0057 14.211 33.619C13.341 33.7157 12.7609 33.5224 12.8576 32.4589C11.6008 32.8456 10.4407 32.8456 9.28067 32.5556C9.18399 32.9423 9.08732 33.329 8.89397 33.5224C8.70062 33.7157 8.21726 33.7157 7.92724 33.8124C7.83056 34.8758 8.60395 36.0359 9.66736 36.5192ZM29.7755 32.5556C29.5821 33.5224 29.5821 33.5224 28.5187 33.7157C28.422 34.5858 28.5187 34.6824 29.3888 34.6824C30.4522 34.6824 31.4189 34.9725 32.1923 35.7458C32.4823 35.9392 32.6757 36.2292 32.9657 36.5192C34.1258 36.0359 34.9958 34.6824 34.8025 33.7157C33.7391 33.619 33.6424 33.7157 33.5457 32.5556C32.1923 32.9423 31.0322 32.8456 29.7755 32.5556ZM6.18711 11.2874C6.86383 11.2874 7.44387 10.7074 7.44387 10.0307C7.44387 9.35395 6.86383 8.77391 6.28378 8.77391C5.60707 8.77391 5.02703 9.25728 5.02703 9.93399C4.93035 10.7074 5.5104 11.2874 6.18711 11.2874ZM21.2682 4.52027C21.9449 4.52027 22.5249 3.94023 22.5249 3.26351C22.5249 2.5868 21.9449 2.10343 21.2682 2.00676C20.5915 2.00676 20.0114 2.5868 20.0114 3.26351C20.1081 4.0369 20.5915 4.52027 21.2682 4.52027ZM36.4459 11.2874C37.1227 11.2874 37.7027 10.7074 37.7027 10.0307C37.7027 9.35395 37.2193 8.87058 36.5426 8.77391C35.8659 8.77391 35.2859 9.25728 35.2859 9.93399C35.1892 10.7074 35.7692 11.2874 36.4459 11.2874ZM17.7879 34.6824C17.8846 34.1024 17.6913 33.7157 17.3046 33.7157C16.7245 33.619 16.1445 33.7157 15.4678 33.7157C15.4678 34.1024 15.3711 34.3924 15.3711 34.6824C16.2412 34.6824 17.0146 34.6824 17.7879 34.6824ZM27.0686 33.7157C26.5852 33.7157 26.1019 33.7157 25.6185 33.7157C24.9418 33.7157 24.6518 34.0057 24.8451 34.6824C25.6185 34.6824 26.3919 34.6824 27.262 34.6824C27.1653 34.2957 27.1653 34.0057 27.0686 33.7157ZM28.422 32.2656C28.422 31.3955 27.552 31.2989 27.262 30.7188C26.9719 31.2989 26.7786 31.6856 26.4886 32.2656C27.1653 32.2656 27.7453 32.2656 28.422 32.2656ZM16.0478 32.2656C15.7578 31.7822 15.5645 31.2989 15.2744 30.8155C14.9844 31.1055 14.7911 31.2989 14.501 31.4922C14.211 31.6856 13.921 31.8789 14.1143 32.2656C14.8877 32.2656 15.4678 32.2656 16.0478 32.2656ZM14.9844 27.9153C14.9844 27.1419 14.9844 26.4652 14.9844 25.6918C14.4044 25.7885 14.1143 26.1752 14.1143 26.6585C14.1143 27.2386 14.4044 27.7219 14.9844 27.9153ZM27.552 25.6918C27.552 26.4652 27.552 27.1419 27.552 27.9153C28.132 27.8186 28.422 27.3352 28.422 26.8519C28.5187 26.2718 28.132 25.8851 27.552 25.6918ZM5.31705 24.3384C4.83368 24.5317 4.64033 24.9184 4.64033 25.3051C4.64033 25.6918 4.83368 25.9818 5.31705 26.1752C5.31705 25.5951 5.31705 25.0151 5.31705 24.3384ZM37.316 26.1752C37.7994 25.9818 37.9927 25.6918 37.9927 25.2084C37.9927 24.8217 37.7994 24.5317 37.316 24.3384C37.316 25.0151 37.316 25.5951 37.316 26.1752Z" fill="white"/>
</svg>
