<svg width="17" height="17" viewBox="0 0 17 17" fill="none" xmlns="http://www.w3.org/2000/svg">
<path d="M11.1004 11.5126L12.4466 10.17C12.6279 9.99147 12.8573 9.86923 13.1069 9.81816C13.3566 9.76709 13.6157 9.78939 13.8528 9.88236L15.4935 10.5356C15.7331 10.6327 15.9386 10.7983 16.0841 11.0116C16.2295 11.2249 16.3084 11.4764 16.3108 11.7343V14.731C16.3094 14.9065 16.2724 15.0799 16.202 15.2407C16.1317 15.4016 16.0294 15.5466 15.9014 15.667C15.7734 15.7873 15.6223 15.8807 15.4572 15.9413C15.292 16.0019 15.1163 16.0285 14.9406 16.0196C3.44416 15.3064 1.12444 5.59707 0.685738 1.88115C0.665373 1.69867 0.68398 1.51396 0.740334 1.33917C0.796689 1.16438 0.889513 1.00346 1.0127 0.86702C1.13589 0.730576 1.28665 0.621691 1.45507 0.547528C1.62348 0.473365 1.80573 0.435604 1.98983 0.436731H4.89248C5.1515 0.437496 5.40437 0.515525 5.61856 0.660783C5.83275 0.80604 5.99847 1.01188 6.09441 1.25184L6.74946 2.88804C6.84576 3.12362 6.87033 3.38228 6.8201 3.63171C6.76986 3.88114 6.64705 4.11028 6.467 4.2905L5.12085 5.63303C5.12085 5.63303 5.89609 10.8653 11.1004 11.5126Z" fill="#331A2F"/>
</svg>
